<svg width="270" height="253" viewBox="0 0 270 253" fill="none" xmlns="http://www.w3.org/2000/svg">
<path d="M231.489 154.08H29.6562V187.321H231.489V154.08Z" fill="#9C5F4C"/>
<path d="M205.783 115.08H56.2322C47.438 115.08 40.2866 122.241 40.2866 131.047V202.029H221.729V131.047C221.729 122.241 214.577 115.08 205.783 115.08Z" fill="#B27A69"/>
<path d="M44.1519 205.707L41.0111 186.207C40.1414 180.643 44.3935 175.611 49.9987 175.563L138.424 174.74H211.291C216.945 174.74 221.245 179.772 220.375 185.337L217.186 205.707" fill="#9C5F4C"/>
<path d="M203.028 185.047H58.2132C52.6564 185.047 48.1626 189.547 48.1626 195.111V195.595C48.1626 201.159 52.6564 205.659 58.2132 205.659H203.028C208.585 205.659 213.127 201.159 213.127 195.546V195.063C213.127 189.595 208.634 185.047 203.028 185.047Z" fill="#B27A69"/>
<path d="M88.4131 194.096C77.6377 194.096 66.814 193.273 56.1353 191.725L56.2802 190.757C70.8729 192.934 85.7555 193.612 100.493 192.789C113.25 192.063 126.054 190.225 138.521 187.273L138.763 188.193C126.248 191.144 113.395 193.031 100.541 193.757C96.5308 193.999 92.472 194.096 88.4131 194.096Z" fill="#5C2D1F"/>
<path d="M42.6543 176.821L39.6584 159.16L31.9272 148.999C31.9272 148.999 24.8241 149.967 29.7045 146.338C29.7045 146.338 42.7026 135.548 54.1061 135.548C65.5096 135.548 71.0181 138.983 71.0181 138.983L73.4825 175.369L42.6543 176.821Z" fill="#FBE2A6"/>
<path d="M230.329 219.933H30.7671V235.949H230.329V219.933Z" fill="#9C5F4C"/>
<ellipse opacity="0.1" cx="134" cy="236.727" rx="134" ry="2.5" fill="#1E3354"/>
<path d="M46.5681 231.304H26.6603C23.8577 231.304 21.5383 229.126 21.3451 226.368L17.3345 167.338C16.8513 160.176 22.5047 154.08 29.7044 154.08C36.2276 154.08 41.5912 159.112 42.0744 165.644L46.5681 231.304Z" fill="#B27A69"/>
<path d="M234.871 231.304H215.06L219.167 165.741C219.554 159.209 225.014 154.129 231.537 154.129C238.689 154.129 244.342 160.177 243.907 167.29L240.235 226.321C239.993 229.127 237.674 231.304 234.871 231.304Z" fill="#B27A69"/>
<path d="M216.993 205.708H44.1519V231.304H216.993V205.708Z" fill="#B27A69"/>
<path d="M49.1289 185.047C49.1289 185.047 82.5181 195.353 140.309 185.047H49.1289Z" fill="#9C5F4C"/>
<path d="M165.918 163.128L173.118 184.369H193.944L186.648 176.627L180.704 158.095" fill="#EB955A"/>
<path d="M248.836 147.935L268.212 143.29L270 121.226L259.95 131.581L241.588 134.145" fill="#EB955A"/>
<path d="M114.989 87.4032H49.9506C47.8245 87.4032 46.085 85.6613 46.085 83.5323V18.4048C46.085 16.2758 47.8245 14.5339 49.9506 14.5339H114.989C117.115 14.5339 118.855 16.2758 118.855 18.4048V83.5323C118.855 85.6613 117.115 87.4032 114.989 87.4032Z" fill="#FFC6D4"/>
<path d="M166.692 72.3075H128.664C127.407 72.3075 126.393 71.2914 126.393 70.0333V31.9536C126.393 30.6955 127.407 29.6794 128.664 29.6794H166.692C167.948 29.6794 168.963 30.6955 168.963 31.9536V70.0333C168.914 71.2914 167.9 72.3075 166.692 72.3075Z" fill="#FBE2A6"/>
<path d="M69.5201 116.339L63.8184 110.339L70.3416 104.001L76.8165 109.226" fill="#EB955A"/>
<path d="M68.7955 108.354L65.4614 114.112C65.2198 114.547 64.6883 114.693 64.2534 114.451L52.2701 107.58C51.8352 107.338 51.6902 106.806 51.9318 106.37L55.2659 100.612C55.5075 100.177 56.039 100.032 56.4739 100.274L68.4573 107.144C68.8922 107.386 69.0371 107.919 68.7955 108.354Z" fill="black"/>
<path d="M69.2301 107.581L65.896 113.338C65.6544 113.774 65.1229 113.919 64.688 113.677L52.753 106.806C52.3181 106.564 52.1731 106.032 52.4147 105.597L55.7488 99.8388C55.9904 99.4033 56.5219 99.2582 56.9568 99.5001L68.9402 106.371C69.3268 106.613 69.4717 107.193 69.2301 107.581Z" fill="#4D4D4D"/>
<path d="M69.2301 107.581L65.896 113.338C65.6544 113.774 65.1229 113.919 64.688 113.677L52.753 106.806C52.3181 106.564 52.1731 106.032 52.4147 105.597L55.7488 99.8388C55.9904 99.4033 56.5219 99.2582 56.9568 99.5001L68.9402 106.371C69.3268 106.613 69.4717 107.193 69.2301 107.581Z" fill="#1E3354"/>
<path d="M68.2637 106.032L65.5578 107L64.8813 107.532C64.4464 107.871 63.8183 107.919 63.3351 107.581L60.7258 105.887C60.0493 105.452 59.6628 104.629 59.7111 103.806L59.9044 101.629C59.9527 101.194 60.2426 100.758 60.6292 100.565L62.8519 99.4517C63.625 99.0646 64.5914 99.1614 65.2679 99.742L70.2932 104L68.2637 106.032Z" fill="#EB955A"/>
<path d="M65.8602 19.5122C66.6267 10.2709 59.7667 2.15716 50.538 1.38963C41.3093 0.622104 33.2066 7.49144 32.4401 16.7327C31.6736 25.974 38.5336 34.0878 47.7623 34.8553C56.991 35.6228 65.0937 28.7535 65.8602 19.5122Z" fill="#3D81F0"/>
<path d="M100.203 156.837L105.857 146.096L139.197 107.29C142.821 103.081 148.185 100.806 153.742 101.145C161.183 101.581 167.561 106.71 169.639 113.871L185.343 167.482L167.561 171.692L152.002 135.402L132.964 159.886L100.203 156.837Z" fill="#0F2CE0"/>
<path d="M174.761 131.29L155.433 143.048L161.328 156.838L180.415 150.596L174.761 131.29Z" fill="#061A95"/>
<path d="M103.827 152.723L95.9995 183.497C95.9995 183.497 109.916 186.013 125.91 182.239C125.91 182.239 249.561 148.514 251.494 148.127L249.609 132.208L103.827 152.723Z" fill="#0F2CE0"/>
<path d="M67.2005 132.645L99.4784 129.306L100.058 133.08C100.88 138.306 97.4489 143.242 92.2787 144.209L73.6271 147.838L58.5029 137.387L61.837 134.822C63.4316 133.564 65.2677 132.839 67.2005 132.645Z" fill="#FF6D55"/>
<path d="M107.065 144.452L89.0411 143.533L67.7803 134.484C65.6059 133.565 63.0932 133.855 61.2088 135.307L46.3262 146.775L65.171 175.467L95.9509 183.548L107.065 144.452Z" fill="#FF6D55"/>
<path d="M103.054 204.642C103.054 204.642 108.515 208.029 109.239 208.658C109.964 209.287 112.718 214.561 112.477 215.094C112.283 215.626 111.365 215.723 110.931 215.384C110.931 215.384 110.979 216.352 110.786 216.69C110.592 217.029 104.359 218.674 103.248 218.239C102.136 217.852 102.764 216.449 102.764 216.449C102.764 216.449 102.475 215.626 100.155 214.561C98.2223 213.691 96.2412 211.852 96.2412 211.852L103.054 204.642Z" fill="#EB955A"/>
<path d="M55.7004 139.66L46.5679 146.579C42.8956 149.385 41.6393 154.321 43.4754 158.53L57.6332 188.917C58.9862 191.868 61.3056 194.288 64.1564 195.788L95.8061 212.723L104.31 204.691L74.4486 183.111L55.7004 139.66Z" fill="#FF6D55"/>
<path d="M52.8977 132.063L60.5806 137.241C63.4315 139.176 64.1563 142.998 62.2235 145.853C60.1941 148.853 56.0385 149.434 53.236 147.111L42.7988 138.499" fill="#EB955A"/>
<path d="M53.3328 138.064L55.1689 135.741C56.8601 133.661 56.3769 130.564 54.2025 129.016L47.8726 124.612C46.8579 123.935 45.5049 124.08 44.7318 125.048L37.2422 133.806L48.4524 143.144" fill="#EB955A"/>
<path d="M55.1688 135.741C55.1688 135.741 54.0091 138.161 49.9502 139.032C49.9502 139.032 53.8158 142.806 58.8894 136.177L55.9902 134.193C55.9902 134.193 55.7486 134.967 55.1688 135.741Z" fill="#DD7731"/>
<path d="M50.917 134.193C50.917 134.193 52.7532 133.08 53.478 132.015C53.478 132.015 54.2028 133.225 53.1397 134.435C52.0767 135.644 50.917 134.193 50.917 134.193Z" fill="white"/>
<path d="M102.426 136.467C102.812 133.612 101.749 130.805 99.5749 128.918L74.3518 106.661L67.877 114.79L90.684 144.402L95.0328 143.87C98.8501 143.386 101.894 140.338 102.426 136.467Z" fill="#FF6D55"/>
<path d="M145.989 145.64L118.569 150.123L118.725 151.078L146.145 146.595L145.989 145.64Z" fill="white"/>
<path d="M65.9646 163.831L65.0767 164.213L70.5813 177.011L71.4692 176.629L65.9646 163.831Z" fill="white"/>
<path d="M250.368 140.617L127.792 169.305L128.012 170.247L250.588 141.559L250.368 140.617Z" fill="#041685"/>
<path d="M97.7873 144.451L88.7998 143.434L76.8647 140.096L77.1063 139.177L89.0414 142.467L97.884 143.483L97.7873 144.451Z" fill="white"/>
<path d="M29.2694 171.982C31.4843 171.982 33.2799 170.184 33.2799 167.966C33.2799 165.748 31.4843 163.95 29.2694 163.95C27.0544 163.95 25.2588 165.748 25.2588 167.966C25.2588 170.184 27.0544 171.982 29.2694 171.982Z" fill="#9C5F4C"/>
<path d="M231.73 171.982C233.945 171.982 235.741 170.184 235.741 167.966C235.741 165.748 233.945 163.95 231.73 163.95C229.515 163.95 227.72 165.748 227.72 167.966C227.72 170.184 229.515 171.982 231.73 171.982Z" fill="#9C5F4C"/>
<path d="M44.0068 138.45C44.0068 138.45 46.1812 135.547 43.3787 133.08L47.8724 124.66C47.8724 124.66 43.6686 121.273 38.8849 125.822C33.5214 130.951 37.387 140.337 45.698 140.87L44.0068 138.45Z" fill="#7A3136"/>
<path d="M45.6319 138.275C45.8727 137.399 45.0877 136.419 43.8784 136.085C42.6692 135.752 41.4937 136.192 41.2529 137.068C41.0121 137.944 41.7972 138.924 43.0064 139.258C44.2156 139.591 45.3911 139.151 45.6319 138.275Z" fill="#EB955A"/>
<path d="M106.872 145.129L100.928 184.079C100.928 184.079 98.8504 183.983 95.9995 183.499L106.872 145.129Z" fill="#061A95"/>
<path d="M216.254 203.528L215.247 219.9L216.211 219.959L217.219 203.588L216.254 203.528Z" fill="#5C2D1F"/>
<path d="M47.3413 24.0191C46.9064 24.0191 46.4716 23.874 46.1333 23.5353L41.3013 18.6967C40.6248 18.0193 40.6248 16.9548 41.3013 16.2774C41.9778 15.6 43.0408 15.6 43.669 16.2774L47.293 19.9063L54.541 12.6484C55.2175 11.971 56.2805 11.971 56.9087 12.6484C57.5852 13.3258 57.5852 14.3903 56.9087 15.0677L48.501 23.5353C48.2111 23.874 47.7762 24.0191 47.3413 24.0191Z" fill="#A6C6FA"/>
<path d="M93.4387 62.6306H72.5645V67.4692H93.4387V62.6306Z" fill="#D53A60"/>
<path d="M95.0814 68.1933H70.9214V67.4675C70.9214 66.9352 71.3563 66.4998 71.8878 66.4998H94.115C94.6465 66.4998 95.0814 66.9352 95.0814 67.4675V68.1933Z" fill="#D95F7D"/>
<path d="M102.909 65.4841H63.0933C61.7403 65.4841 60.6772 64.4196 60.6772 63.0648V39.7911C60.6772 38.4363 61.7403 37.3718 63.0933 37.3718H102.909C104.262 37.3718 105.325 38.4363 105.325 39.7911V63.0648C105.325 64.4196 104.262 65.4841 102.909 65.4841Z" fill="#D95F7D"/>
<path d="M157.849 61.2758C157.656 61.2758 157.511 61.1791 157.366 61.0339L155.337 58.0824H139.874L137.845 61.0339C137.651 61.2758 137.313 61.3726 137.072 61.1791C136.83 60.9855 136.733 60.6468 136.927 60.4049L139.246 56.9695H155.965L158.284 60.4049C158.477 60.6468 158.381 61.0339 158.139 61.1791C158.091 61.2274 157.946 61.2758 157.849 61.2758Z" fill="#FEA63D"/>
<path d="M159.202 58.9543H136.105C135.332 58.9543 134.704 58.3252 134.704 57.5511V44.0514C134.704 43.2772 135.332 42.6482 136.105 42.6482H159.202C159.975 42.6482 160.603 43.2772 160.603 44.0514V57.5511C160.603 58.3252 159.975 58.9543 159.202 58.9543Z" fill="#FEA63D"/>
<path d="M101.363 63.8384H64.5914C63.3834 63.8384 62.417 62.8706 62.417 61.661V41.1937C62.417 39.9841 63.3834 39.0164 64.5914 39.0164H101.363C102.571 39.0164 103.537 39.9841 103.537 41.1937V61.6126C103.586 62.8222 102.571 63.8384 101.363 63.8384Z" fill="#FFEBF0"/>
<path d="M159.009 56.6796H136.299C136.009 56.6796 135.815 56.486 135.815 56.1957V44.2444C135.815 43.954 136.009 43.7605 136.299 43.7605H159.009C159.299 43.7605 159.492 43.954 159.492 44.2444V56.1957C159.492 56.486 159.251 56.6796 159.009 56.6796Z" fill="#FFFEE0"/>
</svg>
