<svg width="24" height="24" viewBox="0 0 24 24" fill="none" xmlns="http://www.w3.org/2000/svg">
<path d="M18.4785 4.9C17.7751 4.3 16.8708 4 15.866 4H12.6507H12.3493H9.13397C8.22967 4 7.32536 4.3 6.52153 4.9L2 8.8L4.91388 12.3L7.1244 10.6V20H12.3493H12.6507H17.8756V10.5L20.0861 12.2L23 8.7L18.4785 4.9Z" fill="url(#paint0_linear)"/>
<path d="M12.5 7C13.8542 7 15 5.625 15 4H12.8125H12.5H10C10 5.625 11.0417 7 12.5 7Z" fill="url(#paint1_linear)"/>
<path d="M2 8.7998L4.9 12.1998L6 11.2998L3.1 7.7998L2 8.7998Z" fill="url(#paint2_linear)"/>
<path d="M22.8997 8.7998L19.9997 12.1998L18.8997 11.2998L21.7997 7.7998L22.8997 8.7998Z" fill="url(#paint3_linear)"/>
<path d="M15.0999 9.59961H9.8999V11.5996H15.0999V9.59961Z" fill="white"/>
<defs>
<linearGradient id="paint0_linear" x1="12.5" y1="4" x2="12.5" y2="20" gradientUnits="userSpaceOnUse">
<stop stop-color="#3AD4E0"/>
<stop offset="1" stop-color="#2EB5BF"/>
</linearGradient>
<linearGradient id="paint1_linear" x1="10" y1="7" x2="13.3601" y2="8.10461" gradientUnits="userSpaceOnUse">
<stop stop-color="#F8819E"/>
<stop offset="1" stop-color="#FF7597"/>
</linearGradient>
<linearGradient id="paint2_linear" x1="2" y1="12.1998" x2="4.88582" y2="12.7173" gradientUnits="userSpaceOnUse">
<stop stop-color="#F8819E"/>
<stop offset="1" stop-color="#FF7597"/>
</linearGradient>
<linearGradient id="paint3_linear" x1="18.8997" y1="12.1998" x2="21.7855" y2="12.7173" gradientUnits="userSpaceOnUse">
<stop stop-color="#F8819E"/>
<stop offset="1" stop-color="#FF7597"/>
</linearGradient>
</defs>
</svg>
