<svg width="24" height="24" viewBox="0 0 24 24" fill="none" xmlns="http://www.w3.org/2000/svg">
<path d="M12.1 20.2C16.5735 20.2 20.2 16.5735 20.2 12.1C20.2 7.62649 16.5735 4 12.1 4C7.62649 4 4 7.62649 4 12.1C4 16.5735 7.62649 20.2 12.1 20.2Z" fill="#C7CAD9"/>
<path d="M12.1 20.2C16.5735 20.2 20.2 16.5735 20.2 12.1C20.2 7.62649 16.5735 4 12.1 4C7.62649 4 4 7.62649 4 12.1C4 16.5735 7.62649 20.2 12.1 20.2Z" fill="url(#paint0_linear)"/>
<path d="M10.6079 12.6329H12.4197C12.7395 15.0842 14.7645 17.1092 17.5355 18.0684C17.8553 17.7487 18.175 17.5355 18.3882 17.2158C15.7237 16.4697 13.6987 14.6579 13.4855 12.6329H20.0934C20.0934 12.4197 20.0934 12.3132 20.0934 12.1C20.0934 11.8868 20.0934 11.6737 20.0934 11.5671H13.4855C13.8053 9.43553 15.7237 7.73026 18.3882 7.09079C18.175 6.77105 17.8553 6.45132 17.5355 6.23816C14.6579 6.98421 12.6329 9.11579 12.3132 11.4605H10.6079C10.7145 8.5829 11.3539 6.025 12.3132 4C12.2066 4 12.1 4 12.1 4C11.7803 4 11.3539 4 11.0342 4.10658C10.075 6.23816 9.54211 8.79605 9.43553 11.5671H8.26316C8.05 9.86184 7.09079 8.47632 5.59868 7.30395C5.38553 7.62368 5.17237 7.94342 4.95921 8.26316C6.13158 9.11579 6.98421 10.1816 7.19737 11.4605H4C4 11.6737 4 11.7803 4 11.9934C4 12.2066 4 12.4197 4 12.5263H7.19737C6.98421 13.9118 6.13158 15.0842 4.95921 15.9368C5.17237 16.2566 5.38553 16.5763 5.59868 16.8961C7.09079 15.8303 8.15658 14.3382 8.26316 12.6329H9.43553C9.54211 15.4039 10.075 17.9618 11.0342 20.0934C11.3539 20.0934 11.6737 20.2 12.1 20.2C12.2066 20.2 12.2066 20.2 12.3132 20.2C11.2474 18.0684 10.6079 15.5105 10.6079 12.6329Z" fill="url(#paint1_linear)"/>
<defs>
<linearGradient id="paint0_linear" x1="12.1" y1="4" x2="12.1" y2="20.2" gradientUnits="userSpaceOnUse">
<stop stop-color="#3AD4E0"/>
<stop offset="1" stop-color="#2EB5BF"/>
</linearGradient>
<linearGradient id="paint1_linear" x1="4" y1="20.2" x2="15.5409" y2="22.4614" gradientUnits="userSpaceOnUse">
<stop stop-color="#F8819E"/>
<stop offset="1" stop-color="#FF7597"/>
</linearGradient>
</defs>
</svg>
