<svg width="29" height="27" viewBox="0 0 29 27" fill="none" xmlns="http://www.w3.org/2000/svg">
<path opacity="0.7" d="M22.3713 9.3036C22.3713 5.90472 20.0284 3.06765 16.8284 2.25304V2.02832H14.9713C10.8856 2.02832 7.57129 5.28675 7.57129 9.3036C7.57129 13.3205 10.8856 16.5789 14.9713 16.5789H16.8284V16.3542C20.0284 15.5396 22.3713 12.6744 22.3713 9.3036Z" fill="#E290A4"/>
<path d="M18.0497 16.4806C22.0806 15.8181 24.802 12.0683 24.128 8.10532C23.4541 4.14234 19.6401 1.46684 15.6092 2.12941C11.5783 2.79198 8.85688 6.54173 9.53081 10.5047C10.2047 14.4677 14.0188 17.1432 18.0497 16.4806Z" fill="url(#paint0_linear)"/>
<path d="M16.8285 9.75295C15.7143 9.55632 15.2571 8.85407 15.1714 8.26418C15.0857 7.59003 15.4571 6.97205 16.0857 6.66306C17.2571 6.12935 18.1714 6.8316 18.4857 7.28104L17.7428 7.78666C17.6857 7.73048 17.2285 7.1125 16.4571 7.47767C16.1714 7.61812 16 7.87093 16.0285 8.17991C16.0857 8.54508 16.4285 8.82598 16.9714 8.91025L16.8285 9.75295Z" fill="white"/>
<path d="M16.7714 12.1405C15.9999 12.1405 15.4571 11.663 15.2285 11.3259L15.9714 10.8203C16.0285 10.8765 16.4857 11.4945 17.2571 11.1293C17.5428 10.9888 17.7142 10.736 17.6857 10.4271C17.6285 10.0619 17.2857 9.78098 16.7428 9.69671L16.8857 8.82593C17.9999 9.02256 18.4571 9.7248 18.5428 10.3147C18.6285 10.9888 18.2571 11.6068 17.6285 11.9158C17.3142 12.0844 17.0285 12.1405 16.7714 12.1405Z" fill="white"/>
<path d="M17.3999 5.82031H16.5142V6.77537H17.3999V5.82031Z" fill="white"/>
<path d="M17.3999 11.6912H16.5142V12.6462H17.3999V11.6912Z" fill="white"/>
<path d="M25.7427 14.837C25.1712 14.4438 24.3712 14.528 23.8284 15.0056L20.057 18.264C19.7998 18.0393 19.457 17.8988 19.0855 17.8988H14.6284C14.257 17.8988 13.857 17.8145 13.5427 17.6179C13.0284 17.337 11.9998 16.9438 10.3712 16.9718C8.79982 17.028 7.82839 18.1235 7.28553 18.9381L2.54267 22.646C2.05696 23.0393 2.1141 23.7977 2.65696 24.0786L7.59982 26.8314C7.99982 27.0561 8.48553 26.9999 8.85696 26.719L11.3141 24.7808L18.9427 24.1629C19.5427 24.1067 20.1141 23.882 20.5427 23.4606C22.5712 21.5505 24.8855 18.6291 26.1427 16.9999C26.657 16.3258 26.4855 15.3145 25.7427 14.837Z" fill="url(#paint1_linear)"/>
<path d="M15.4287 20.7076L15.3716 20.0615L19.2573 19.7806C19.4573 19.7525 19.6573 19.6682 19.7716 19.5559C20.1144 19.1064 19.7716 18.4604 19.7716 18.4604L20.343 18.1514C20.3716 18.2075 20.943 19.1907 20.2859 19.9772C20.0573 20.2581 19.7144 20.4267 19.3144 20.4547L15.4287 20.7076Z" fill="white"/>
<path d="M4.48597 12.0276L4.80025 12.5894C4.80025 12.6175 4.82882 12.6456 4.85739 12.6456L5.42882 12.9546C5.51454 13.0108 5.51454 13.1512 5.42882 13.2074L4.85739 13.5164C4.82882 13.5164 4.80025 13.5445 4.80025 13.5726L4.48597 14.1344C4.42882 14.2186 4.28597 14.2186 4.22882 14.1344L3.91454 13.5726C3.91454 13.5445 3.88597 13.5164 3.85739 13.5164L3.28597 13.2074C3.20025 13.1512 3.20025 13.0108 3.28597 12.9546L3.85739 12.6456C3.88597 12.6456 3.91454 12.6175 3.91454 12.5894L4.22882 12.0276C4.28597 11.9153 4.42882 11.9153 4.48597 12.0276Z" fill="#3AD4E0"/>
<path d="M26.6002 2.11217L27.0288 2.89869C27.0574 2.92678 27.0859 2.95487 27.1145 2.98296L27.9145 3.40431C28.0574 3.48858 28.0574 3.65712 27.9145 3.74139L27.1145 4.16273C27.0859 4.19082 27.0574 4.21891 27.0288 4.247L26.6002 5.03352C26.5145 5.17397 26.3431 5.17397 26.2574 5.03352L25.8288 4.247C25.8002 4.21891 25.7717 4.19082 25.7431 4.16273L24.9431 3.74139C24.8002 3.65712 24.8002 3.48858 24.9431 3.40431L25.7431 2.98296C25.7717 2.95487 25.8002 2.92678 25.8288 2.89869L26.2574 2.11217C26.3431 1.97172 26.5431 1.97172 26.6002 2.11217Z" fill="#3AD4E0"/>
<path d="M1.74304 8.82594L2.17161 9.61246C2.20018 9.64054 2.22875 9.66863 2.25732 9.69672L3.05732 10.1181C3.20018 10.2023 3.20018 10.3709 3.05732 10.4552L2.25732 10.8765C2.22875 10.9046 2.20018 10.9327 2.17161 10.9608L1.74304 11.7473C1.65732 11.8877 1.4859 11.8877 1.40018 11.7473L0.97161 10.9608C0.943038 10.9327 0.914467 10.9046 0.885896 10.8765L0.114467 10.4271C-0.0283901 10.3428 -0.0283901 10.1743 0.114467 10.09L0.914467 9.66863C0.943038 9.64054 0.97161 9.61245 1.00018 9.58437L1.42875 8.79785C1.4859 8.68549 1.6859 8.68549 1.74304 8.82594Z" fill="#3AD4E0"/>
<defs>
<linearGradient id="paint0_linear" x1="10.7511" y1="17.6803" x2="21.5586" y2="18.0002" gradientUnits="userSpaceOnUse">
<stop stop-color="#F8819E"/>
<stop offset="1" stop-color="#FF7597"/>
</linearGradient>
<linearGradient id="paint1_linear" x1="14.3249" y1="14.5879" x2="14.3249" y2="26.9701" gradientUnits="userSpaceOnUse">
<stop stop-color="#3AD4E0"/>
<stop offset="1" stop-color="#2EB5BF"/>
</linearGradient>
</defs>
</svg>
