<svg width="24" height="24" viewBox="0 0 24 24" fill="none" xmlns="http://www.w3.org/2000/svg">
<path d="M15.9 8.40002C15.6 8.20002 15.4 7.90002 15.4 7.50002V6.90002H8.7V7.40002C8.7 7.80002 8.5 8.10002 8.2 8.30002L7.1 9.00002C6.4 9.40002 6 10.1 6 10.9V18.7C6 19.9 7 20.9 8.2 20.9H11.4H11.6H15.9C17.1 20.9 18.1 19.9 18.1 18.7V10.9C18.1 10.1 17.7 9.40002 17 9.00002L15.9 8.40002Z" fill="#C7CAD9"/>
<path d="M15.9 8.40002C15.6 8.20002 15.4 7.90002 15.4 7.50002V6.90002H8.7V7.40002C8.7 7.80002 8.5 8.10002 8.2 8.30002L7.1 9.00002C6.4 9.40002 6 10.1 6 10.9V18.7C6 19.9 7 20.9 8.2 20.9H11.4H11.6H15.9C17.1 20.9 18.1 19.9 18.1 18.7V10.9C18.1 10.1 17.7 9.40002 17 9.00002L15.9 8.40002Z" fill="url(#paint0_linear)"/>
<path d="M15.9001 4H8.2001C7.8001 4 7.6001 4.3 7.6001 4.6V6.4C7.6001 6.7 7.9001 7 8.2001 7H16.0001C16.3001 7 16.6001 6.7 16.6001 6.4V4.6C16.5001 4.3 16.2001 4 15.9001 4Z" fill="#C7CAD9"/>
<path d="M15.9001 4H8.2001C7.8001 4 7.6001 4.3 7.6001 4.6V6.4C7.6001 6.7 7.9001 7 8.2001 7H16.0001C16.3001 7 16.6001 6.7 16.6001 6.4V4.6C16.5001 4.3 16.2001 4 15.9001 4Z" fill="url(#paint1_linear)"/>
<path d="M15.8 11.1H6V18.2H15.8V11.1Z" fill="url(#paint2_linear)"/>
<path d="M12.1999 14H10.9999V12.8H9.5999V14H8.3999V15.4H9.5999V16.6H10.9999V15.4H12.1999V14Z" fill="white"/>
<defs>
<linearGradient id="paint0_linear" x1="12.05" y1="6.90002" x2="12.05" y2="20.9" gradientUnits="userSpaceOnUse">
<stop stop-color="#3AD4E0"/>
<stop offset="1" stop-color="#2EB5BF"/>
</linearGradient>
<linearGradient id="paint1_linear" x1="12.1001" y1="4" x2="12.1001" y2="7" gradientUnits="userSpaceOnUse">
<stop stop-color="#3AD4E0"/>
<stop offset="1" stop-color="#2EB5BF"/>
</linearGradient>
<linearGradient id="paint2_linear" x1="6" y1="18.2" x2="12.794" y2="20.0497" gradientUnits="userSpaceOnUse">
<stop stop-color="#F8819E"/>
<stop offset="1" stop-color="#FF7597"/>
</linearGradient>
</defs>
</svg>
