<svg width="275" height="222" viewBox="0 0 275 222" fill="none" xmlns="http://www.w3.org/2000/svg">
<ellipse opacity="0.1" cx="134.5" cy="219.5" rx="123.5" ry="2.5" fill="#1E3354"/>
<path d="M148.301 201.464L149.056 219.861H168.793L160.789 213.171L161.082 197.116" fill="#EB955A"/>
<path d="M114.358 199.29L110.084 219.861H93.6572L98.602 212.502L101.493 197.116" fill="#EB955A"/>
<path d="M118.758 72.9814H165.482L163.01 203.722H147.002L140.507 110.234L115.28 203.512H98.6021L118.758 72.9814Z" fill="#0F2CE0"/>
<path d="M165.65 73.1905L117.752 79.5038L118.758 72.9814" fill="#061A95"/>
<path d="M145.787 94.0537L142.518 139.627L140.507 110.234L145.787 94.0537Z" fill="#061A95"/>
<path d="M146.616 90.248L140.11 110.12L140.907 110.38L147.412 90.5077L146.616 90.248Z" fill="white"/>
<path d="M173.067 45.0938L176.294 56.1734C177.383 59.9781 175.246 63.9919 171.475 65.1626C167.326 66.4587 163.01 63.9083 162.088 59.6855L159.993 49.7347" fill="#EB955A"/>
<path d="M165.65 73.19L164.518 26.6972C164.434 23.8123 162.339 21.3873 159.49 20.9274L144.278 18.377L130.953 20.3002C126.93 20.8856 127.852 22.9761 127.391 26.9898L118.255 73.1481H165.65V73.19Z" fill="#FF6D55"/>
<path d="M151.36 19.5896L144.278 18.4189L137.657 19.3806L135.395 73.1901H153.33L151.36 19.5896Z" fill="white"/>
<path d="M156.515 20.5088L161.669 21.345C165.65 21.9721 168.835 24.8988 169.84 28.7872L174.24 46.0547L157.059 49.3995L156.515 20.5088Z" fill="#FF6D55"/>
<path d="M111.97 43.2539L106.564 54.0827C105.474 56.2986 105.265 58.8909 106.019 61.274L117.669 98.1505L125.756 94.4294L119.68 60.6051L126.217 49.2327" fill="#EB955A"/>
<path d="M134.64 19.8828L128.061 20.7608C124.583 21.2207 121.524 23.353 119.848 26.447L110.335 44.0908L125.002 53.2891L136.316 34.4745L134.64 19.8828Z" fill="#FF6D55"/>
<path d="M149.055 13.2772L149.726 21.263C149.977 24.2315 147.756 26.7819 144.781 27.0328C141.638 27.2836 138.998 24.775 139.04 21.6393L139.208 9.89062" fill="#EB955A"/>
<path d="M165.482 48.1876L174.03 19.5059L182.328 21.889L176.461 59.4345L166.739 51.9923C165.566 51.1143 165.063 49.5673 165.482 48.1876Z" fill="#EB955A"/>
<path d="M131.129 42.2666L124.638 53.0569L125.356 53.4872L131.847 42.697L131.129 42.2666Z" fill="white"/>
<path d="M165.111 33.672L164.273 33.6924L164.594 46.8586L165.432 46.8382L165.111 33.672Z" fill="white"/>
<path d="M160.872 209.616H148.636L149.055 219.86H168.792L160.789 213.17L160.872 209.616Z" fill="#1E3354"/>
<path d="M110.084 219.86L112.221 209.616H99.1468L98.602 212.501L93.6572 219.86H110.084Z" fill="#1E3354"/>
<path d="M132.95 116.706L110.791 203.406L111.603 203.613L133.762 116.913L132.95 116.706Z" fill="#041685"/>
<path d="M178.053 22.6834H171.726C171.265 22.6834 170.888 22.3071 170.888 21.8472V8.67702C170.888 8.21711 171.265 7.84082 171.726 7.84082H178.053C178.514 7.84082 178.892 8.21711 178.892 8.67702V21.8054C178.892 22.3071 178.514 22.6834 178.053 22.6834Z" fill="black"/>
<path d="M178.891 22.6834H172.564C172.103 22.6834 171.726 22.3071 171.726 21.8472V8.67702C171.726 8.21711 172.103 7.84082 172.564 7.84082H178.891C179.352 7.84082 179.729 8.21711 179.729 8.67702V21.8054C179.729 22.3071 179.352 22.6834 178.891 22.6834Z" fill="#4D4D4D"/>
<path d="M145.284 16.8303H147.84C150.187 16.8303 151.989 14.8653 151.821 12.5239L151.235 4.03645L139.376 3.66016L139.166 16.2868" fill="#EB955A"/>
<path d="M147.84 16.8301C147.84 16.8301 143.817 17.2064 141.513 14.8232C141.513 14.8232 141.638 20.0077 149.6 19.5896L149.349 16.5793C149.307 16.5375 148.636 16.7883 147.84 16.8301Z" fill="#DD7731"/>
<path d="M140.423 8.21735C140.423 8.21735 141.093 7.21391 141.219 5.79236C141.219 5.79236 145.954 7.79925 151.276 5.1234L151.402 6.67037C151.402 6.67037 152.198 5.1234 151.737 3.451C151.067 0.816965 145.326 -2.02612 140.59 2.02946C140.59 2.02946 137.867 1.65317 138.621 7.50658L140.423 8.21735Z" fill="#7A3136"/>
<path d="M139.459 11.019C140.547 11.019 141.429 10.1392 141.429 9.05394C141.429 7.96866 140.547 7.08887 139.459 7.08887C138.372 7.08887 137.49 7.96866 137.49 9.05394C137.49 10.1392 138.372 11.019 139.459 11.019Z" fill="#EB955A"/>
<path d="M104.007 210.955H100.571V211.374H104.007V210.955Z" fill="white"/>
<path d="M103.17 212.25H100.404V212.669H103.17V212.25Z" fill="white"/>
<path d="M102.331 213.672H99.2305V214.091H102.331V213.672Z" fill="white"/>
<path d="M158.4 210.955H154.964V211.374H158.4V210.955Z" fill="white"/>
<path d="M158.568 212.25H155.802V212.669H158.568V212.25Z" fill="white"/>
<path d="M159.741 213.672H156.64V214.091H159.741V213.672Z" fill="white"/>
<path d="M201.101 199.206L169.295 193.102C153.288 190.05 141.303 177.13 139.417 160.992L133.006 105.677C132.838 104.046 131.958 102.541 130.659 101.538C128.648 99.9491 125.798 99.8236 123.619 101.203L121.356 102.625L119.345 114.792C119.01 116.673 118.297 118.513 117.208 120.102L113.939 124.826L112.892 124.115L116.16 119.391C117.166 117.969 117.836 116.297 118.088 114.583L120.183 101.872L122.949 100.158C125.589 98.5275 128.983 98.6948 131.414 100.576C132.964 101.789 134.012 103.587 134.221 105.552L140.633 160.866C142.434 176.461 154.042 188.921 169.463 191.889L201.269 197.994L201.101 199.206Z" fill="#1E3354"/>
<path d="M117.668 98.1921L118.716 101.537C119.093 102.666 119.973 103.586 121.147 103.962L122.823 104.505C123.828 104.84 124.96 104.673 125.84 104.087L127.851 102.791C128.312 102.498 128.564 101.913 128.354 101.37L127.348 98.2339L127.013 96.3942C126.929 95.8925 126.762 95.4326 126.468 95.0145L125.588 93.6348L117.668 98.1921Z" fill="#EB955A"/>
<path d="M103.463 31.5053H37.002C34.6972 31.5053 32.8115 29.6238 32.8115 27.3243V8.42612C32.8115 6.12657 34.6972 4.24512 37.002 4.24512H103.463C105.768 4.24512 107.653 6.12657 107.653 8.42612V27.3243C107.653 29.6656 105.768 31.5053 103.463 31.5053Z" fill="#C2E5F9"/>
<path d="M89.7182 163.668H4.19048C1.88572 163.668 0 161.787 0 159.487V122.151C0 119.851 1.88572 117.97 4.19048 117.97H89.7182C92.0229 117.97 93.9086 119.851 93.9086 122.151V159.487C93.9086 161.787 92.0229 163.668 89.7182 163.668Z" fill="#FBE2A6"/>
<path d="M256.248 150.705H185.387C183.082 150.705 181.196 148.824 181.196 146.524V75.8236C181.196 73.524 183.082 71.6426 185.387 71.6426H256.248C258.553 71.6426 260.438 73.524 260.438 75.8236V146.524C260.438 148.824 258.553 150.705 256.248 150.705Z" fill="#FED3CC"/>
<path d="M78.5716 16.5376H60.1335C59.6726 16.5376 59.2954 16.1613 59.2954 15.7014C59.2954 15.2415 59.6726 14.8652 60.1335 14.8652H78.5716C79.0326 14.8652 79.4097 15.2415 79.4097 15.7014C79.4097 16.1613 79.0326 16.5376 78.5716 16.5376Z" fill="#3D81F0"/>
<path d="M75.0097 21.7212H60.1335C59.6726 21.7212 59.2954 21.3449 59.2954 20.885C59.2954 20.4251 59.6726 20.0488 60.1335 20.0488H75.0097C75.4707 20.0488 75.8478 20.4251 75.8478 20.885C75.8478 21.3449 75.4707 21.7212 75.0097 21.7212Z" fill="#3D81F0"/>
<path d="M86.4915 21.7212H79.7448C79.2839 21.7212 78.9067 21.3449 78.9067 20.885C78.9067 20.4251 79.2839 20.0488 79.7448 20.0488H86.4915C86.9525 20.0488 87.3296 20.4251 87.3296 20.885C87.3296 21.3449 86.9525 21.7212 86.4915 21.7212Z" fill="#3D81F0"/>
<path d="M97.9734 21.7212H91.2268C90.7658 21.7212 90.3887 21.3449 90.3887 20.885C90.3887 20.4251 90.7658 20.0488 91.2268 20.0488H97.9734C98.4344 20.0488 98.8115 20.4251 98.8115 20.885C98.8115 21.3449 98.4344 21.7212 97.9734 21.7212Z" fill="#3D81F0"/>
<path d="M46.9331 25.1089C50.9369 25.1089 54.1827 21.8705 54.1827 17.8757C54.1827 13.881 50.9369 10.6426 46.9331 10.6426C42.9293 10.6426 39.6836 13.881 39.6836 17.8757C39.6836 21.8705 42.9293 25.1089 46.9331 25.1089Z" fill="#3D81F0"/>
<path d="M46.9335 25.1089C49.1125 25.1089 51.0401 24.1473 52.3811 22.6421C51.4173 20.5934 49.322 19.1719 46.9335 19.1719C44.5449 19.1719 42.4496 20.5934 41.4858 22.6421C42.7849 24.1473 44.7544 25.1089 46.9335 25.1089Z" fill="#A6C6FA"/>
<path d="M46.9334 18.5863C48.2757 18.5863 49.3639 17.5006 49.3639 16.1613C49.3639 14.822 48.2757 13.7363 46.9334 13.7363C45.5911 13.7363 44.5029 14.822 44.5029 16.1613C44.5029 17.5006 45.5911 18.5863 46.9334 18.5863Z" fill="#A6C6FA"/>
<path d="M178.891 22.6834H172.564C172.103 22.6834 171.726 22.3071 171.726 21.8472V8.67702C171.726 8.21711 172.103 7.84082 172.564 7.84082H178.891C179.352 7.84082 179.729 8.21711 179.729 8.67702V21.8054C179.729 22.3071 179.352 22.6834 178.891 22.6834Z" fill="#1E3354"/>
<path d="M179.73 21.1375L177.634 19.3814L176.88 19.047C176.377 18.8379 176.084 18.3362 176.084 17.8345L176.252 14.866C176.294 14.0716 176.754 13.4026 177.467 13.0681L179.353 12.1901C179.73 12.0229 180.191 12.0647 180.568 12.2737L182.537 13.5698C183.25 14.0298 183.585 14.866 183.459 15.7022L182.328 21.8482L179.73 21.1375Z" fill="#EB955A"/>
<path d="M76.7694 134.526H17.1389C16.6779 134.526 16.3008 134.149 16.3008 133.689C16.3008 133.23 16.6779 132.853 17.1389 132.853H76.7694C77.2303 132.853 77.6075 133.23 77.6075 133.689C77.6075 134.149 77.2303 134.526 76.7694 134.526Z" fill="#FEA63D"/>
<path d="M38.5103 139.459H17.1389C16.6779 139.459 16.3008 139.082 16.3008 138.623C16.3008 138.163 16.6779 137.786 17.1389 137.786H38.5103C38.9713 137.786 39.3484 138.163 39.3484 138.623C39.3484 139.082 38.9713 139.459 38.5103 139.459Z" fill="#FEA63D"/>
<path d="M76.7694 129.55H17.1389C16.6779 129.55 16.3008 129.174 16.3008 128.714C16.3008 128.254 16.6779 127.878 17.1389 127.878H76.7694C77.2303 127.878 77.6075 128.254 77.6075 128.714C77.6075 129.174 77.2303 129.55 76.7694 129.55Z" fill="#FEA63D"/>
<path d="M22.3351 147.279L23.2989 149.244C23.3408 149.37 23.4665 149.453 23.6341 149.453L25.8132 149.788C26.1484 149.829 26.2741 150.248 26.0646 150.498L24.5141 152.045C24.4303 152.129 24.3884 152.296 24.3884 152.422L24.7656 154.596C24.8075 154.93 24.4722 155.181 24.137 155.056L22.2094 154.052C22.0837 153.969 21.958 153.969 21.8322 154.052L19.9046 155.056C19.6113 155.223 19.2341 154.972 19.276 154.596L19.6532 152.422C19.6951 152.296 19.6113 152.129 19.5275 152.045L17.977 150.498C17.7256 150.248 17.8513 149.829 18.2284 149.788L20.4075 149.453C20.5332 149.453 20.6589 149.328 20.7427 149.244L21.7065 147.279C21.7484 146.986 22.1675 146.986 22.3351 147.279Z" fill="#FEA63D"/>
<path d="M34.8229 147.277L35.7867 149.242C35.8286 149.368 35.9543 149.451 36.1219 149.451L38.301 149.786C38.6362 149.828 38.7619 150.246 38.5524 150.497L37.0019 152.043C36.9181 152.127 36.8762 152.294 36.8762 152.42L37.2534 154.594C37.2953 154.928 36.96 155.179 36.6248 155.054L34.6972 154.05C34.5715 153.967 34.4457 153.967 34.32 154.05L32.3924 155.054C32.0991 155.221 31.7219 154.97 31.7638 154.594L32.141 152.42C32.1829 152.294 32.0991 152.127 32.0153 152.043L30.4648 150.497C30.2134 150.246 30.3391 149.828 30.7162 149.786L32.8953 149.451C33.021 149.451 33.1467 149.326 33.2305 149.242L34.1943 147.277C34.2362 146.984 34.6972 146.984 34.8229 147.277Z" fill="#FEA63D"/>
<path d="M47.3102 147.277L48.274 149.242C48.3159 149.368 48.4416 149.451 48.6092 149.451L50.7883 149.786C51.1235 149.828 51.2492 150.246 51.0397 150.497L49.4892 152.043C49.4054 152.127 49.3635 152.294 49.3635 152.42L49.7407 154.594C49.7826 154.928 49.4473 155.179 49.1121 155.054L47.1845 154.05C47.0588 153.967 46.9331 153.967 46.8073 154.05L44.8797 155.054C44.5864 155.221 44.2092 154.97 44.2511 154.594L44.6283 152.42C44.6702 152.294 44.5864 152.127 44.5026 152.043L42.9521 150.497C42.7007 150.246 42.8264 149.828 43.2035 149.786L45.3826 149.451C45.5083 149.451 45.634 149.326 45.7178 149.242L46.6816 147.277C46.7235 146.984 47.1845 146.984 47.3102 147.277Z" fill="#FEA63D"/>
<path d="M59.84 147.277L60.8038 149.242C60.8457 149.368 60.9714 149.451 61.139 149.451L63.3181 149.786C63.6533 149.828 63.779 150.246 63.5695 150.497L62.019 152.043C61.9352 152.127 61.8933 152.294 61.8933 152.42L62.2705 154.594C62.3124 154.928 61.9771 155.179 61.6419 155.054L59.7143 154.05C59.5886 153.967 59.4628 153.967 59.3371 154.05L57.4095 155.054C57.1162 155.221 56.739 154.97 56.7809 154.594L57.1581 152.42C57.2 152.294 57.1162 152.127 57.0324 152.043L55.4819 150.497C55.2305 150.246 55.3562 149.828 55.7333 149.786L57.9124 149.451C58.0381 149.451 58.1638 149.326 58.2476 149.242L59.2114 147.277C59.2114 146.984 59.6724 146.984 59.84 147.277Z" fill="#FEA63D"/>
<path d="M72.3276 147.277L73.2914 149.242C73.3333 149.368 73.459 149.451 73.6266 149.451L75.8057 149.786C76.1409 149.828 76.2666 150.246 76.0571 150.497L74.5066 152.043C74.4228 152.127 74.3809 152.294 74.3809 152.42L74.7581 154.594C74.8 154.928 74.4647 155.179 74.1295 155.054L72.2019 154.05C72.0762 153.967 71.9505 153.967 71.8247 154.05L69.8971 155.054C69.6038 155.221 69.2266 154.97 69.2685 154.594L69.6457 152.42C69.6876 152.294 69.6038 152.127 69.52 152.043L67.8857 150.497C67.6343 150.246 67.76 149.828 68.1371 149.786L70.3162 149.451C70.4419 149.451 70.5676 149.326 70.6514 149.242L71.6152 147.277C71.7409 146.984 72.16 146.984 72.3276 147.277Z" fill="#FEA63D"/>
<path d="M203.154 114.623C203.029 113.411 203.029 112.115 203.49 110.986C203.951 109.857 204.998 108.854 206.214 108.77C206.214 107.934 206.423 107.056 207.01 106.47C207.596 105.885 208.644 105.76 209.273 106.303C209.734 105.174 210.194 104.004 211.033 103.126C211.871 102.248 213.17 101.662 214.343 102.039C214.636 100.951 216.103 100.408 217.025 101.035C217.193 101.161 217.36 101.286 217.528 101.286C217.695 101.286 217.821 101.244 217.947 101.161C218.869 100.826 219.958 101.035 220.713 101.662C221.467 102.289 221.802 103.376 221.551 104.338C221.97 104.045 222.389 103.753 222.892 103.627C223.394 103.502 223.981 103.669 224.274 104.087C224.861 103.167 225.574 102.206 226.621 101.871C227.669 101.537 229.052 102.206 229.052 103.293C229.052 103.502 229.01 103.753 229.135 103.92C229.219 104.087 229.429 104.129 229.638 104.213C231.105 104.756 232.027 106.47 231.65 108.017C232.697 107.934 233.787 108.059 234.625 108.603C235.505 109.146 236.092 110.233 235.882 111.237C236.636 111.195 237.349 111.697 237.768 112.324C238.187 112.951 238.354 113.704 238.48 114.456" fill="#FFEFEC"/>
<path d="M244.598 126.038H197.036C195.989 126.038 195.276 124.993 195.611 124.031L198.796 115.167C199.383 113.578 200.891 112.533 202.568 112.533H239.025C240.701 112.533 242.21 113.578 242.796 115.167L245.981 124.031C246.358 125.034 245.646 126.038 244.598 126.038Z" fill="#FF6D55"/>
<path d="M255.661 94.6799C265.821 94.6799 274.058 86.4623 274.058 76.3253C274.058 66.1883 265.821 57.9707 255.661 57.9707C245.501 57.9707 237.265 66.1883 237.265 76.3253C237.265 86.4623 245.501 94.6799 255.661 94.6799Z" fill="#FF6D55"/>
<path d="M216.899 122.861C216.899 125.035 218.659 124.073 220.797 124.073C222.976 124.073 224.694 125.035 224.694 122.861C224.694 120.687 222.934 118.972 220.797 118.972C218.659 118.931 216.899 120.687 216.899 122.861Z" fill="#FFC5BB"/>
<path d="M219.495 117.851C220.165 117.595 220.432 116.67 220.093 115.786C219.753 114.902 218.935 114.393 218.265 114.649C217.595 114.906 217.327 115.83 217.667 116.714C218.006 117.598 218.825 118.107 219.495 117.851Z" fill="#FFC5BB"/>
<path d="M216.838 120.451C217.459 120.092 217.576 119.137 217.1 118.318C216.624 117.499 215.735 117.126 215.114 117.485C214.494 117.845 214.377 118.8 214.853 119.619C215.329 120.437 216.218 120.81 216.838 120.451Z" fill="#FFC5BB"/>
<path d="M223.961 116.735C224.301 115.851 224.033 114.926 223.363 114.67C222.693 114.414 221.874 114.923 221.535 115.807C221.195 116.691 221.463 117.615 222.133 117.872C222.803 118.128 223.621 117.619 223.961 116.735Z" fill="#FFC5BB"/>
<path d="M226.786 119.614C227.262 118.795 227.144 117.84 226.524 117.481C225.903 117.121 225.014 117.494 224.538 118.313C224.062 119.132 224.179 120.087 224.8 120.446C225.421 120.805 226.31 120.433 226.786 119.614Z" fill="#FFC5BB"/>
<path d="M263.581 72.9431H250.423L249.92 71.1034C249.669 70.1418 248.789 69.5146 247.783 69.5146H244.975C244.556 69.5146 244.221 69.8491 244.221 70.2672C244.221 70.6853 244.556 71.0198 244.975 71.0198H247.783C248.118 71.0198 248.412 71.2289 248.495 71.5633L250.675 79.2564C250.675 79.34 250.716 79.3818 250.758 79.4236C251.01 79.9672 251.555 80.3435 252.141 80.3435H260.522C261.276 80.3435 261.947 79.8835 262.24 79.1728L264.252 74.0301C264.461 73.4866 264.084 72.9431 263.581 72.9431Z" fill="#FFC5BB"/>
<path d="M252.728 82.3906C252.015 82.3906 251.471 82.976 251.471 83.6449C251.471 84.3557 252.057 84.8992 252.728 84.8992C253.44 84.8992 253.985 84.3139 253.985 83.6449C253.985 82.976 253.44 82.3906 252.728 82.3906Z" fill="#FFC5BB"/>
<path d="M259.6 82.3906C258.888 82.3906 258.343 82.976 258.343 83.6449C258.343 84.3557 258.93 84.8992 259.6 84.8992C260.313 84.8992 260.858 84.3139 260.858 83.6449C260.858 82.976 260.313 82.3906 259.6 82.3906Z" fill="#FFC5BB"/>
<path d="M200.179 198.719L197.623 197.966C194.312 197.005 191.672 194.413 190.751 191.068L190.164 189.019C189.871 187.932 190.667 186.887 191.756 186.887H199.006L199.551 186.051C200.85 184.086 203.071 182.873 205.459 182.873C208.518 182.873 211.242 184.838 212.164 187.765L216.145 200.057L200.892 201.688L200.179 198.719Z" fill="#EB955A"/>
<path d="M207.177 183.123V191.652C207.177 193.367 208.476 194.83 210.194 195.039C212.667 195.332 214.636 192.99 213.882 190.607L213.002 187.806C212.29 185.506 210.362 183.792 208.015 183.29L207.177 183.123Z" fill="#7A3136"/>
<path d="M238.564 203.067C238.564 203.067 244.347 199.471 245.52 193.868C245.604 193.45 246.191 193.409 246.316 193.827C247.28 196.67 248.412 202.858 242.126 206.453L238.564 203.067Z" fill="#EB955A"/>
<path d="M200.85 201.687L201.981 208.084C202.4 210.342 203.238 212.516 204.537 214.439L205.166 215.359L201.059 215.61C199.509 215.693 198.126 216.655 197.497 218.118L196.701 219.916H242.168C243.425 219.916 244.473 218.996 244.64 217.784L244.975 215.652C245.604 211.554 244.389 207.373 241.581 204.321C238.983 201.436 235.254 199.806 231.356 199.806H216.103L200.85 201.687Z" fill="#EB955A"/>
<path d="M193.139 186.886H191.757C190.625 186.886 189.829 187.931 190.164 189.018L190.29 189.478C191.589 189.185 192.679 188.182 193.139 186.886Z" fill="#7A3136"/>
<path d="M216.103 199.806L200.85 201.688L200.389 199.681L215.349 197.674L216.103 199.806Z" fill="#1E3354"/>
<path d="M221.635 220.001C221.383 218.287 221.635 216.99 222.473 216.112C223.436 215.109 224.903 214.942 225.574 214.984C227.208 205.158 233.326 204.489 233.619 204.489L233.703 205.325L233.661 204.907L233.703 205.325C233.452 205.367 227.795 205.994 226.37 215.485L226.328 215.903L225.909 215.862C225.909 215.862 224.107 215.694 223.101 216.74C222.473 217.409 222.221 218.496 222.473 219.917L221.635 220.001Z" fill="#7A3136"/>
<path d="M145.829 13.1504C145.829 13.1504 147.547 13.7775 148.72 13.6939C148.72 13.6939 148.301 14.8646 146.918 14.781C145.494 14.7392 145.829 13.1504 145.829 13.1504Z" fill="white"/>
</svg>
