<svg width="24" height="24" viewBox="0 0 24 24" fill="none" xmlns="http://www.w3.org/2000/svg">
<path d="M17.4688 6.07812H8.5V4H6.85938C6.85938 4 5 4.10938 5 6.07812V8.04688V18.2188C5 18.875 5.54688 19.3125 6.20312 19.3125H17.5781C18.0156 19.3125 18.3438 18.9844 18.3438 18.5469V6.84375C18.2344 6.40625 17.9062 6.07812 17.4688 6.07812Z" fill="url(#paint0_linear)"/>
<path d="M18.2346 17.2344H6.85962V4H18.2346C18.6721 4 19.0002 4.32812 19.0002 4.76562V16.5781C19.0002 16.9062 18.6721 17.2344 18.2346 17.2344Z" fill="#C7CAD9"/>
<path d="M18.2346 17.2344H6.85962V4H18.2346C18.6721 4 19.0002 4.32812 19.0002 4.76562V16.5781C19.0002 16.9062 18.6721 17.2344 18.2346 17.2344Z" fill="url(#paint1_linear)"/>
<path d="M16.5938 12.0942H9.26562V14.7192H16.5938V12.0942Z" fill="white"/>
<defs>
<linearGradient id="paint0_linear" x1="5" y1="19.3125" x2="14.6513" y2="20.9714" gradientUnits="userSpaceOnUse">
<stop stop-color="#F8819E"/>
<stop offset="1" stop-color="#FF7597"/>
</linearGradient>
<linearGradient id="paint1_linear" x1="12.9299" y1="4" x2="12.9299" y2="17.2344" gradientUnits="userSpaceOnUse">
<stop stop-color="#3AD4E0"/>
<stop offset="1" stop-color="#2EB5BF"/>
</linearGradient>
</defs>
</svg>
