<svg width="272" height="262" viewBox="0 0 272 262" fill="none" xmlns="http://www.w3.org/2000/svg">
<path d="M136 247.787C210.902 247.787 271.622 246.255 271.622 244.364C271.622 242.473 210.902 240.94 136 240.94C61.0987 240.94 0.378906 242.473 0.378906 244.364C0.378906 246.255 61.0987 247.787 136 247.787Z" fill="#E8EBEE"/>
<path d="M220.572 214.624H176.217C172.486 214.624 169.676 211.047 169.931 206.652L172.946 157.493C173.253 152.741 176.625 148.908 180.56 148.908H226.755C230.639 148.908 233.449 152.741 232.989 157.493L228.135 206.652C227.675 211.047 224.302 214.624 220.572 214.624Z" fill="#9C5F4C"/>
<path d="M114.794 216.514L111.472 243.648C111.37 244.364 111.932 244.977 112.647 244.977H114.998C115.509 244.977 115.969 244.67 116.122 244.21L126.393 216.514H114.794Z" fill="#9C5F4C"/>
<path d="M87.71 216.514L84.3885 243.648C84.2863 244.364 84.8484 244.977 85.5638 244.977H87.9145C88.4255 244.977 88.8854 244.67 89.0387 244.21L99.3099 216.514H87.71Z" fill="#9C5F4C"/>
<path d="M183.83 216.514L187.152 243.648C187.254 244.364 186.692 244.977 185.977 244.977H183.626C183.115 244.977 182.655 244.67 182.502 244.21L172.23 216.514H183.83Z" fill="#606060"/>
<path d="M210.863 216.514L214.185 243.648C214.287 244.364 213.725 244.977 213.009 244.977H210.659C210.148 244.977 209.688 244.67 209.534 244.21L199.263 216.514H210.863Z" fill="#9C5F4C"/>
<path d="M214.747 220.091H85.6661C82.3446 220.091 79.6362 217.383 79.6362 214.061V209.462C79.6362 206.14 82.3446 203.432 85.6661 203.432H214.695C218.017 203.432 220.725 206.14 220.725 209.462V214.061C220.725 217.434 218.068 220.091 214.747 220.091Z" fill="#9C5F4C"/>
<path d="M80.1471 188.663L75.1904 114.72C74.7816 108.793 79.2784 104.04 85.155 104.04H179.231C185.159 104.04 190.269 108.844 190.678 114.72L195.635 188.459L80.1471 188.663Z" fill="#9C5F4C"/>
<path d="M98.339 188.663L93.3823 114.72C92.9735 108.793 97.4703 104.04 103.347 104.04H179.129C185.057 104.04 190.218 108.844 190.576 114.771L195.533 188.51L98.339 188.663Z" fill="#B27A69"/>
<path d="M223.127 171.648H103.449V196.432H223.127V171.648Z" fill="#9C5F4C"/>
<path d="M210.556 194.795H135.949C129.664 194.795 124.554 189.685 124.554 183.4C124.554 177.114 129.664 172.004 135.949 172.004H210.607C216.893 172.004 222.003 177.114 222.003 183.4C221.952 189.685 216.842 194.795 210.556 194.795Z" fill="#B27A69"/>
<path d="M157.974 177.013C145.148 177.013 139.373 175.889 139.271 175.889L139.373 175.276C139.527 175.327 156.134 178.495 195.635 173.999L195.686 174.612C179.385 176.451 166.968 177.013 157.974 177.013Z" fill="#5C2D1F"/>
<path d="M132.27 171.648C132.27 171.648 140.497 174.152 155.214 174.305C169.982 174.407 196.708 172.057 196.708 172.057L132.27 171.648Z" fill="#9C5F4C"/>
<path d="M220.572 214.624H211.322C207.592 214.624 204.833 211.047 205.19 206.652L209.33 157.493C209.738 152.741 213.213 148.908 217.097 148.908H226.755C230.639 148.908 233.449 152.741 232.989 157.493L228.135 206.652C227.675 211.047 224.302 214.624 220.572 214.624Z" fill="#B27A69"/>
<path d="M218.119 194.644H102.989V214.624H218.119V194.644Z" fill="#B27A69"/>
<path d="M183.166 224.894L182.911 239.1L189.963 245.028H172.537L171.873 228.778" fill="#EB955A"/>
<path d="M182.962 235.984H172.18L172.537 245.028H189.963L182.911 239.101L182.962 235.984Z" fill="#1E3354"/>
<path d="M180.764 237.159H177.75V237.465H180.764V237.159Z" fill="white"/>
<path d="M180.969 238.333H178.516V238.64H180.969V238.333Z" fill="white"/>
<path d="M181.991 239.612H179.231V239.918H181.991V239.612Z" fill="white"/>
<path d="M211.783 195.665L219.448 210.024L235.187 202.461L226.244 200.213L220.317 187.284" fill="#EB955A"/>
<path d="M224.916 197.351L215.207 202.052L219.448 210.024L235.187 202.461L226.244 200.213L224.916 197.351Z" fill="#1E3354"/>
<path d="M223.477 199.37L220.76 200.675L220.893 200.952L223.61 199.646L223.477 199.37Z" fill="white"/>
<path d="M224.123 200.366L221.912 201.428L222.044 201.705L224.255 200.643L224.123 200.366Z" fill="white"/>
<path d="M225.645 201.044L223.158 202.239L223.29 202.515L225.778 201.321L225.645 201.044Z" fill="white"/>
<path d="M126.904 147.579V154.988C126.904 164.288 134.467 171.851 143.768 171.851H165.025L170.391 231.588H184.495L191.598 161.478C192.364 154.068 186.539 147.579 179.078 147.579H158.28L154.499 143.337L126.904 147.579Z" fill="#0F2CE0"/>
<path d="M164.504 162.492L163.893 162.547L164.729 171.861L165.34 171.806L164.504 162.492Z" fill="white"/>
<path d="M160.733 133.731L184.035 126.066C189.145 124.379 194.664 126.883 196.759 131.84L223.638 194.694L210.147 201.03L177.187 147.63H158.331L154.55 143.389L160.733 133.731Z" fill="#0F2CE0"/>
<path d="M158.279 147.262L158.278 147.875L177.134 147.901L177.135 147.288L158.279 147.262Z" fill="white"/>
<path d="M190.78 169.706L177.136 147.63L189.86 178.75L190.78 169.706Z" fill="#061A95"/>
<path d="M162.062 140.272L126.904 153.916V147.579L162.062 140.272Z" fill="#061A95"/>
<path d="M136.665 78.031C136.103 78.3376 135.336 78.9508 134.774 79.8706C133.19 82.4767 131.452 97.2959 131.095 97.9603C134.518 99.1867 137.993 100.464 141.417 101.691L149.746 101.384C151.535 100.158 153.375 98.9312 155.163 97.7048C155.163 96.9893 155.061 95.814 154.805 94.4854C154.294 92.0326 153.477 90.3462 153.17 89.7841C150.717 84.623 153.681 80.7904 151.228 77.4178C148.418 73.5852 140.497 72.9209 137.687 76.0891C137.125 76.7023 136.818 77.4178 136.665 78.031Z" fill="#7A3136"/>
<path d="M167.325 115.335L170.8 124.738C171.975 127.957 170.391 131.585 167.172 132.863C163.697 134.242 159.762 132.3 158.689 128.723L156.236 120.19" fill="#EB955A"/>
<path d="M155.725 95.354C159.2 95.6606 162.42 98.0623 163.493 101.333L168.398 116.05L153.732 120.036" fill="#F75243"/>
<path d="M159.302 125.146C160.427 123.511 161.551 119.882 161.398 114.67C161.295 110.735 158.996 107.26 157.207 105.165L156.236 95.354H131.555C128.387 95.354 125.831 97.9601 125.883 101.128L126.905 147.579C132.475 147.732 139.884 147.323 148.214 145.177C153.63 143.798 158.28 142.009 162.062 140.22L159.302 125.146Z" fill="#F75243"/>
<path d="M184.955 226.785H169.931L170.391 231.588H184.495L184.955 226.785Z" fill="#061A95"/>
<path d="M207.388 196.584L210.097 201.03L223.587 194.642L221.696 190.145L207.388 196.584Z" fill="#061A95"/>
<path d="M119.342 214.624H76.928C73.2488 214.624 69.7739 211.047 69.1096 206.652L62.211 157.493C61.5467 152.741 64.1017 148.908 67.9343 148.908H112.188C116.02 148.908 119.546 152.741 120.057 157.493L125.218 206.652C125.627 211.047 123.021 214.624 119.342 214.624Z" fill="#9C5F4C"/>
<path d="M119.341 214.624H110.245C106.566 214.624 103.142 211.047 102.631 206.652L96.7547 157.493C96.1926 152.741 98.8498 148.908 102.682 148.908H112.187C116.02 148.908 119.546 152.741 120.057 157.493L125.218 206.652C125.627 211.047 123.02 214.624 119.341 214.624Z" fill="#B27A69"/>
<path d="M170.257 162.534L169.645 162.568L173.287 226.801L173.899 226.767L170.257 162.534Z" fill="#041685"/>
<path d="M45.0923 166.691C45.0923 166.691 57.612 157.646 62.2621 148.141C66.9123 138.637 59.8093 135.826 55.7212 140.476C49.2314 147.886 45.0923 166.691 45.0923 166.691Z" fill="#0CB359"/>
<path d="M37.9381 171.955C37.9381 171.955 40.3398 168.837 40.7997 166.18C41.2596 163.523 39.3178 163.37 38.6535 164.8C37.5804 167.1 37.9381 171.955 37.9381 171.955Z" fill="#0CB359"/>
<path d="M45.3986 182.685L44.5298 182.634C44.5298 182.532 45.092 171.392 43.6611 152.433L44.5298 152.382C45.9607 171.392 45.3986 182.532 45.3986 182.685Z" fill="#0CB359"/>
<path d="M44.3254 155.398C44.3254 155.398 30.4771 133.169 38.1933 130.205C45.8584 127.19 46.9315 146.966 44.3254 155.398Z" fill="#0CB359"/>
<path d="M44.7344 162.449C44.7344 162.449 35.2807 148.038 28.7399 148.907C22.199 149.776 24.8562 161.733 44.7344 162.449Z" fill="#0CB359"/>
<path d="M45.0923 174.969C45.0923 174.969 54.8525 173.487 61.8533 167.508C68.8541 161.53 64.8172 155.858 57.612 160.559C50.4068 165.26 45.0923 174.969 45.0923 174.969Z" fill="#0CB359"/>
<path d="M43.9679 180.079C43.9168 179.977 38.96 171.239 30.835 167.151L31.1927 166.384C39.5732 170.574 44.6322 179.568 44.6833 179.619L43.9679 180.079Z" fill="#0CB359"/>
<path d="M35.0764 169.246C35.0764 169.246 30.4773 167.764 25.3161 171.699C20.1549 175.634 25.8271 178.648 29.6086 174.714C33.4411 170.677 35.0764 169.246 35.0764 169.246Z" fill="#0CB359"/>
<path d="M32.6747 167.712C32.6747 167.712 28.6888 161.733 23.8854 160.354C19.0819 158.974 18.0088 162.551 20.3594 164.697C23.221 167.303 32.6747 167.712 32.6747 167.712Z" fill="#0CB359"/>
<path d="M58.3273 207.265C54.1371 192.343 52.2974 182.838 51.7353 179.977C51.6331 179.466 51.1732 179.057 50.6111 179.057H40.1354C39.5733 179.057 39.1134 179.466 39.0112 179.977C38.5002 182.838 36.6095 192.343 32.4192 207.265C27.3603 225.354 27.6669 237.465 35.7919 244.619H54.9036C63.1308 237.414 63.3863 225.354 58.3273 207.265Z" fill="#213557"/>
<path d="M57.9182 241.297C26.5934 246.254 34.9229 198.117 34.9229 198.117C34.2074 200.877 33.3898 203.943 32.47 207.264C27.411 225.354 27.7176 237.465 35.8427 244.619H54.9543C56.1297 243.597 57.1006 242.473 57.9182 241.297Z" fill="#040E20"/>
<path d="M36.916 189.992H53.8815C53.7793 189.481 53.6771 189.021 53.5238 188.562H37.2226C37.1715 189.021 37.0693 189.481 36.916 189.992Z" fill="#040E20"/>
<path d="M35.4849 195.921H55.312C55.1076 195.001 54.852 194.183 54.6476 193.314H36.0981C35.9448 194.132 35.7404 195.001 35.4849 195.921Z" fill="#040E20"/>
<path d="M108.355 164.596C111.092 164.596 113.311 162.377 113.311 159.639C113.311 156.902 111.092 154.683 108.355 154.683C105.617 154.683 103.398 156.902 103.398 159.639C103.398 162.377 105.617 164.596 108.355 164.596Z" fill="#9C5F4C"/>
<path d="M220.827 164.596C223.565 164.596 225.784 162.377 225.784 159.639C225.784 156.902 223.565 154.683 220.827 154.683C218.09 154.683 215.871 156.902 215.871 159.639C215.871 162.377 218.09 164.596 220.827 164.596Z" fill="#9C5F4C"/>
<path d="M133.599 95.354H128.795C124.707 95.354 121.181 98.2156 120.312 102.202L115.969 122.591L133.599 123.613V95.354Z" fill="#F75243"/>
<path d="M142.336 104.705C141.263 104.705 140.395 105.573 140.395 106.646C140.395 107.72 141.263 108.588 142.336 108.588C143.409 108.588 144.278 107.72 144.278 106.646C144.278 105.522 143.409 104.705 142.336 104.705Z" fill="#FF6A5C"/>
<path d="M142.336 135.519C141.263 135.519 140.395 136.388 140.395 137.461C140.395 138.534 141.263 139.403 142.336 139.403C143.409 139.403 144.278 138.534 144.278 137.461C144.278 136.388 143.409 135.519 142.336 135.519Z" fill="#FF6A5C"/>
<path d="M131.605 104.705C130.532 104.705 129.664 105.573 129.664 106.646C129.664 107.72 130.532 108.588 131.605 108.588C132.679 108.588 133.547 107.72 133.547 106.646C133.496 105.522 132.679 104.705 131.605 104.705Z" fill="#FF6A5C"/>
<path d="M136.971 127.598C135.898 127.598 135.029 128.467 135.029 129.54C135.029 130.613 135.898 131.482 136.971 131.482C138.044 131.482 138.913 130.613 138.913 129.54C138.913 128.467 138.044 127.598 136.971 127.598Z" fill="#FF6A5C"/>
<path d="M136.971 143.031C135.898 143.031 135.029 143.899 135.029 144.972C135.029 146.045 135.898 146.914 136.971 146.914C138.044 146.914 138.913 146.045 138.913 144.972C138.913 143.899 138.044 143.031 136.971 143.031Z" fill="#FF6A5C"/>
<path d="M136.971 96.7334C135.898 96.7334 135.029 97.6021 135.029 98.6752C135.029 99.7483 135.898 100.617 136.971 100.617C138.044 100.617 138.913 99.7483 138.913 98.6752C138.913 97.6021 138.044 96.7334 136.971 96.7334Z" fill="#FF6A5C"/>
<path d="M136.971 112.166C135.898 112.166 135.029 113.034 135.029 114.108C135.029 115.181 135.898 116.049 136.971 116.049C138.044 116.049 138.913 115.181 138.913 114.108C138.913 113.034 138.044 112.166 136.971 112.166Z" fill="#FF6A5C"/>
<path d="M142.336 120.087C141.263 120.087 140.395 120.955 140.395 122.028C140.395 123.102 141.263 123.97 142.336 123.97C143.409 123.97 144.278 123.102 144.278 122.028C144.278 120.955 143.409 120.087 142.336 120.087Z" fill="#FF6A5C"/>
<path d="M153.119 135.519C152.045 135.519 151.177 136.388 151.177 137.461C151.177 138.534 152.045 139.403 153.119 139.403C154.192 139.403 155.06 138.534 155.06 137.461C155.009 136.388 154.192 135.519 153.119 135.519Z" fill="#FF6A5C"/>
<path d="M153.119 120.087C152.045 120.087 151.177 120.955 151.177 122.028C151.177 123.102 152.045 123.97 153.119 123.97C154.192 123.97 155.06 123.102 155.06 122.028C155.009 120.955 154.192 120.087 153.119 120.087Z" fill="#FF6A5C"/>
<path d="M153.119 104.705C152.045 104.705 151.177 105.573 151.177 106.646C151.177 107.72 152.045 108.588 153.119 108.588C154.192 108.588 155.06 107.72 155.06 106.646C155.009 105.522 154.192 104.705 153.119 104.705Z" fill="#FF6A5C"/>
<path d="M147.702 112.166C146.629 112.166 145.76 113.034 145.76 114.108C145.76 115.181 146.629 116.049 147.702 116.049C148.775 116.049 149.644 115.181 149.644 114.108C149.644 113.034 148.775 112.166 147.702 112.166Z" fill="#FF6A5C"/>
<path d="M147.702 96.7334C146.629 96.7334 145.76 97.6021 145.76 98.6752C145.76 99.7483 146.629 100.617 147.702 100.617C148.775 100.617 149.644 99.7483 149.644 98.6752C149.644 97.6021 148.775 96.7334 147.702 96.7334Z" fill="#FF6A5C"/>
<path d="M147.702 127.598C146.629 127.598 145.76 128.467 145.76 129.54C145.76 130.613 146.629 131.482 147.702 131.482C148.775 131.482 149.644 130.613 149.644 129.54C149.644 128.467 148.775 127.598 147.702 127.598Z" fill="#FF6A5C"/>
<path d="M120.823 120.087C119.75 120.087 118.881 120.955 118.881 122.028C118.881 122.284 118.932 122.54 119.035 122.795L122.458 122.999C122.612 122.693 122.714 122.386 122.714 122.028C122.765 120.955 121.896 120.087 120.823 120.087Z" fill="#FF6A5C"/>
<path d="M124.298 98.6752C124.298 99.7483 125.167 100.617 126.24 100.617C127.313 100.617 128.182 99.7483 128.182 98.6752C128.182 97.6021 127.313 96.7334 126.24 96.7334C125.167 96.7334 124.298 97.6021 124.298 98.6752Z" fill="#FF6A5C"/>
<path d="M120.823 108.537C121.896 108.537 122.765 107.668 122.765 106.595C122.765 105.522 121.896 104.653 120.823 104.653C120.414 104.653 120.005 104.807 119.699 105.011L119.137 107.515C119.494 108.128 120.108 108.537 120.823 108.537Z" fill="#FF6A5C"/>
<path d="M163.85 108.537C164.617 108.537 165.23 108.128 165.536 107.515L164.668 104.909C164.412 104.807 164.157 104.705 163.85 104.705C162.777 104.705 161.908 105.573 161.908 106.646C161.908 107.668 162.777 108.537 163.85 108.537Z" fill="#FF6A5C"/>
<path d="M126.189 116.049C127.262 116.049 128.131 115.181 128.131 114.108C128.131 113.034 127.262 112.166 126.189 112.166C125.116 112.166 124.247 113.034 124.247 114.108C124.247 115.181 125.167 116.049 126.189 116.049Z" fill="#FF6A5C"/>
<path d="M128.13 144.921C128.13 144.053 127.568 143.337 126.802 143.082L126.904 146.71C127.619 146.454 128.13 145.79 128.13 144.921Z" fill="#FF6A5C"/>
<path d="M126.444 127.598L126.547 131.38C127.466 131.226 128.131 130.46 128.131 129.489C128.131 128.518 127.415 127.751 126.444 127.598Z" fill="#FF6A5C"/>
<path d="M168.347 115.793L167.529 113.29C167.427 113.545 167.325 113.801 167.325 114.107C167.325 114.823 167.734 115.487 168.347 115.793Z" fill="#FF6A5C"/>
<path d="M147.702 143.031C146.629 143.031 145.76 143.899 145.76 144.972C145.76 145.279 145.811 145.534 145.965 145.79C146.68 145.637 147.447 145.432 148.213 145.279C148.673 145.177 149.184 145.023 149.644 144.87C149.593 143.797 148.775 143.031 147.702 143.031Z" fill="#FF6A5C"/>
<path d="M131.605 120.087C130.532 120.087 129.664 120.955 129.664 122.028C129.664 123.102 130.532 123.97 131.605 123.97C132.679 123.97 133.547 123.102 133.547 122.028C133.496 120.955 132.679 120.087 131.605 120.087Z" fill="#FF6A5C"/>
<path d="M158.484 112.166C157.411 112.166 156.542 113.034 156.542 114.108C156.542 115.181 157.411 116.049 158.484 116.049C159.557 116.049 160.426 115.181 160.426 114.108C160.426 113.034 159.557 112.166 158.484 112.166Z" fill="#FF6A5C"/>
<path d="M131.605 139.403C132.679 139.403 133.547 138.534 133.547 137.461C133.547 136.388 132.679 135.519 131.605 135.519C130.532 135.519 129.664 136.388 129.664 137.461C129.664 138.534 130.532 139.403 131.605 139.403Z" fill="#FF6A5C"/>
<path d="M158.484 131.431C159.251 131.431 159.915 130.971 160.222 130.306L159.813 128.16C159.455 127.803 158.995 127.598 158.433 127.598C157.36 127.598 156.491 128.467 156.491 129.54C156.542 130.562 157.411 131.431 158.484 131.431Z" fill="#FF6A5C"/>
<path d="M158.484 96.7334C157.411 96.7334 156.542 97.6021 156.542 98.6752C156.542 99.7483 157.411 100.617 158.484 100.617C159.557 100.617 160.426 99.7483 160.426 98.6752C160.426 97.6021 159.557 96.7334 158.484 96.7334Z" fill="#FF6A5C"/>
<path d="M117.144 122.692L115.253 132.759C114.691 135.774 116.275 138.789 119.086 140.015L150.206 153.864H158.382C158.944 153.864 159.506 153.608 159.915 153.199L161.193 151.922C161.959 151.155 162.061 149.878 161.346 149.009C161.039 148.651 160.682 148.396 160.222 148.294L152.914 146.25L130.532 131.226L131.657 123.459L117.144 122.692Z" fill="#EB955A"/>
<path d="M147.805 89.0177L148.418 96.6828C148.673 99.4933 146.527 101.997 143.717 102.202C140.702 102.406 138.198 100.055 138.249 97.0405L138.402 85.7983" fill="#EB955A"/>
<path d="M144.177 92.3902H146.476C148.776 92.3902 150.615 90.4484 150.462 88.0977L149.9 80.126L138.555 79.7683L138.351 91.8792" fill="#EB955A"/>
<path d="M146.578 92.3898C146.578 92.3898 142.746 92.7475 140.497 90.448C140.497 90.448 140.65 95.4048 148.213 95.0471L147.958 92.1343C148.009 92.1343 147.396 92.3387 146.578 92.3898Z" fill="#DD7731"/>
<path d="M138.453 83.0898C138.453 83.0898 139.015 83.1409 139.373 84.1629C139.424 84.2651 139.577 84.2651 139.577 84.1118L140.446 81.1479C140.446 81.1479 146.987 83.0387 150.155 81.4034C153.477 79.7171 150.666 78.4396 150.666 78.4396L144.994 77.2643L138.76 76.8555L137.227 78.4396L137.329 80.4836L138.453 83.0898Z" fill="#7A3136"/>
<path d="M138.607 86.8703C139.651 86.8703 140.497 86.0238 140.497 84.9796C140.497 83.9354 139.651 83.0889 138.607 83.0889C137.562 83.0889 136.716 83.9354 136.716 84.9796C136.716 86.0238 137.562 86.8703 138.607 86.8703Z" fill="#EB955A"/>
<path d="M145.607 90.4483C144.585 90.4483 143.87 89.784 143.819 89.7329L144.228 89.2729C144.228 89.2729 145.096 90.0395 146.067 89.7329L146.221 90.295C146.016 90.4483 145.812 90.4483 145.607 90.4483Z" fill="white"/>
<path d="M161.602 115.488L166.507 93.0032L173.866 94.5362L171.209 127.496L164.872 123.357C162.215 121.671 160.937 118.554 161.602 115.488Z" fill="#EB955A"/>
<path d="M159.251 125.044L158.791 124.686C158.842 124.584 165.945 114.926 156.492 104.706L156.952 104.297C166.712 114.875 159.302 124.942 159.251 125.044Z" fill="white"/>
<path d="M170.187 95.5074L164.668 95.9162C164.259 95.9673 163.901 95.6607 163.901 95.2519L163.032 83.8564C162.981 83.4476 163.288 83.0899 163.697 83.0899L169.216 82.6811C169.624 82.63 169.982 82.9366 169.982 83.3454L170.851 94.7409C170.902 95.1497 170.595 95.5074 170.187 95.5074Z" fill="#030A14"/>
<path d="M170.902 95.4564L165.383 95.8652C164.974 95.9163 164.616 95.6097 164.616 95.2009L163.748 83.8054C163.697 83.3966 164.003 83.0389 164.412 83.0389L169.931 82.6301C170.34 82.579 170.697 82.8856 170.697 83.2944L171.566 94.6899C171.617 95.0987 171.311 95.4564 170.902 95.4564Z" fill="#1E3354"/>
<path d="M171.16 95.8319L165.641 96.2407C165.232 96.2918 164.874 95.9852 164.874 95.5764L164.006 84.1809C163.954 83.7721 164.261 83.4144 164.67 83.4144L170.189 83.0056C170.598 82.9545 170.955 83.2611 170.955 83.6699L171.824 95.0654C171.875 95.4742 171.568 95.8319 171.16 95.8319Z" fill="#1E3354"/>
<path d="M171.566 94.077L169.624 92.6973L168.909 92.4929C168.449 92.3396 168.142 91.9308 168.142 91.4709L168.091 88.9159C168.091 88.2515 168.449 87.5872 169.062 87.2806L170.646 86.4119C170.953 86.2075 171.362 86.2586 171.719 86.4119L173.508 87.4339C174.121 87.7916 174.53 88.507 174.428 89.2225L173.866 94.6391L171.566 94.077Z" fill="#EB955A"/>
<path d="M133.785 110.895L132.164 123.567L132.671 123.632L134.292 110.96L133.785 110.895Z" fill="white"/>
<path d="M245.509 84.9293H187.152C185.466 84.9293 184.086 83.5496 184.086 81.8633V12.4174C184.086 10.731 185.466 9.35132 187.152 9.35132H245.509C247.195 9.35132 248.575 10.731 248.575 12.4174V81.8122C248.575 83.5496 247.195 84.9293 245.509 84.9293Z" fill="#FBE2A6"/>
<path d="M211.272 27.0835H236.976C237.538 27.0835 237.946 27.4923 237.998 28.0033L241.166 59.6347C241.217 60.2479 240.757 60.81 240.144 60.81H207.848C207.235 60.81 206.724 60.2479 206.826 59.6347L210.25 28.0033C210.301 27.4923 210.761 27.0835 211.272 27.0835Z" fill="#FEA63D"/>
<path d="M258.744 72.6137L246.378 69.5476L234.011 72.6137C234.011 72.6137 232.172 94.587 246.378 97.2442C260.533 94.587 258.744 72.6137 258.744 72.6137Z" fill="#3D81F0"/>
<path d="M244.641 85.8495L241.83 83.0389C241.421 82.6301 241.421 82.0169 241.83 81.6081C242.239 81.1993 242.852 81.1993 243.261 81.6081L245.356 83.7033L249.444 79.6152C249.853 79.2064 250.466 79.2064 250.875 79.6152C251.284 80.024 251.284 80.6372 250.875 81.046L246.071 85.8495C245.714 86.2583 245.049 86.2583 244.641 85.8495Z" fill="#A6C6FA"/>
<path d="M223.996 38.1214C220.674 38.1214 217.966 35.4131 217.966 32.0915V29.9453H219.499V32.0915C219.499 34.5955 221.543 36.5884 223.996 36.5884C226.449 36.5884 228.493 34.5444 228.493 32.0915V29.9453H230.026V32.0915C230.026 35.4131 227.317 38.1214 223.996 38.1214Z" fill="#FFFEE0"/>
<path d="M200.898 40.5737H218.63C219.499 40.5737 220.214 41.2891 220.214 42.1579V59.2766C220.214 60.1453 219.499 60.8607 218.63 60.8607H200.898C200.029 60.8607 199.314 60.1453 199.314 59.2766V42.1068C199.365 41.238 200.029 40.5737 200.898 40.5737Z" fill="#FF6D55"/>
<path d="M194.511 40.5737H202.84C203.709 40.5737 204.424 41.2891 204.424 42.1579V59.2766C204.424 60.1453 203.709 60.8607 202.84 60.8607H194.511C193.642 60.8607 192.927 60.1453 192.927 59.2766V42.1068C192.927 41.238 193.642 40.5737 194.511 40.5737Z" fill="#DD5E4A"/>
<path d="M198.906 40.5737H198.395V45.3772H198.906V40.5737Z" fill="#A81E11"/>
<path d="M138.095 35.0551C147.776 35.0551 155.623 27.2078 155.623 17.5276C155.623 7.84735 147.776 0 138.095 0C128.415 0 120.568 7.84735 120.568 17.5276C120.568 27.2078 128.415 35.0551 138.095 35.0551Z" fill="#FF6D55"/>
<path d="M145.302 14.1391H132.881L132.374 11.9401C132.121 10.7759 131.31 9.99976 130.346 9.99976H127.71C127.305 9.99976 127 10.3878 127 10.9052C127 11.4226 127.305 11.8107 127.71 11.8107H130.346C130.651 11.8107 130.955 12.0694 131.006 12.4575L133.084 21.7062C133.084 21.7709 133.135 21.8356 133.186 21.9003C133.439 22.547 133.946 22.9998 134.504 22.9998H142.412C143.122 22.9998 143.781 22.4177 144.035 21.5769L145.961 15.3679C146.113 14.7858 145.809 14.1391 145.302 14.1391Z" fill="#FFC5BB"/>
<path d="M135.285 24.3015C134.621 24.3015 134.059 24.8636 134.059 25.5279C134.059 26.1922 134.621 26.7544 135.285 26.7544C135.949 26.7544 136.511 26.1922 136.511 25.5279C136.511 24.8636 135.949 24.3015 135.285 24.3015Z" fill="#FFC5BB"/>
<path d="M141.826 24.3015C141.162 24.3015 140.6 24.8636 140.6 25.5279C140.6 26.1922 141.162 26.7544 141.826 26.7544C142.49 26.7544 143.052 26.1922 143.052 25.5279C143.052 24.8636 142.49 24.3015 141.826 24.3015Z" fill="#FFC5BB"/>
</svg>
