<svg width="24" height="24" viewBox="0 0 24 24" fill="none" xmlns="http://www.w3.org/2000/svg">
<path d="M20.976 12.6202C20.576 8.62017 18.876 6.22017 17.676 5.42017C16.476 4.62017 15.176 5.12017 13.976 5.62017C12.876 6.12017 11.576 6.02017 11.576 6.02017C11.576 6.02017 10.276 6.02017 9.17601 5.62017C7.97601 5.12017 6.67601 4.62017 5.47601 5.42017C4.17601 6.32017 2.47601 8.62017 2.07601 12.6202C1.67601 16.6202 2.87601 19.1202 5.17601 17.5202C7.47601 16.0202 9.87601 15.0202 11.576 15.0202C13.276 15.0202 15.576 16.0202 17.976 17.6202C20.276 19.2202 21.476 16.7202 20.976 12.6202Z" fill="#C7CAD9"/>
<path d="M20.976 12.6202C20.576 8.62017 18.876 6.22017 17.676 5.42017C16.476 4.62017 15.176 5.12017 13.976 5.62017C12.876 6.12017 11.576 6.02017 11.576 6.02017C11.576 6.02017 10.276 6.02017 9.17601 5.62017C7.97601 5.12017 6.67601 4.62017 5.47601 5.42017C4.17601 6.32017 2.47601 8.62017 2.07601 12.6202C1.67601 16.6202 2.87601 19.1202 5.17601 17.5202C7.47601 16.0202 9.87601 15.0202 11.576 15.0202C13.276 15.0202 15.576 16.0202 17.976 17.6202C20.276 19.2202 21.476 16.7202 20.976 12.6202Z" fill="url(#paint0_linear)"/>
<path d="M8.57607 9.92017H7.57607V9.02017C7.57607 8.72017 7.27607 8.42017 6.97607 8.42017C6.67607 8.42017 6.47607 8.62017 6.47607 9.02017V9.92017H5.57607C5.27607 9.92017 4.97607 10.2202 4.97607 10.5202C4.97607 10.8202 5.27607 11.1202 5.57607 11.1202H6.47607V12.0202C6.47607 12.3202 6.77607 12.6202 7.07607 12.6202C7.37607 12.6202 7.67607 12.3202 7.67607 12.0202V11.1202H8.67607C8.97607 11.1202 9.27607 10.8202 9.27607 10.5202C9.27607 10.2202 8.87607 9.92017 8.57607 9.92017Z" fill="url(#paint1_linear)"/>
<path d="M15.8762 9.92019C16.318 9.92019 16.6762 9.56202 16.6762 9.12019C16.6762 8.67836 16.318 8.32019 15.8762 8.32019C15.4343 8.32019 15.0762 8.67836 15.0762 9.12019C15.0762 9.56202 15.4343 9.92019 15.8762 9.92019Z" fill="url(#paint2_linear)"/>
<path d="M15.8762 12.8202C16.318 12.8202 16.6762 12.462 16.6762 12.0202C16.6762 11.5784 16.318 11.2202 15.8762 11.2202C15.4343 11.2202 15.0762 11.5784 15.0762 12.0202C15.0762 12.462 15.4343 12.8202 15.8762 12.8202Z" fill="url(#paint3_linear)"/>
<path d="M17.3762 11.4202C17.818 11.4202 18.1762 11.062 18.1762 10.6202C18.1762 10.1784 17.818 9.82019 17.3762 9.82019C16.9343 9.82019 16.5762 10.1784 16.5762 10.6202C16.5762 11.062 16.9343 11.4202 17.3762 11.4202Z" fill="url(#paint4_linear)"/>
<path d="M14.476 11.4202C14.9179 11.4202 15.276 11.062 15.276 10.6202C15.276 10.1784 14.9179 9.82019 14.476 9.82019C14.0342 9.82019 13.676 10.1784 13.676 10.6202C13.676 11.062 14.0342 11.4202 14.476 11.4202Z" fill="url(#paint5_linear)"/>
<defs>
<linearGradient id="paint0_linear" x1="11.5441" y1="5" x2="11.5441" y2="18.1089" gradientUnits="userSpaceOnUse">
<stop stop-color="#3AD4E0"/>
<stop offset="1" stop-color="#2EB5BF"/>
</linearGradient>
<linearGradient id="paint1_linear" x1="4.97607" y1="12.6202" x2="8.05261" y2="13.2414" gradientUnits="userSpaceOnUse">
<stop stop-color="#F8819E"/>
<stop offset="1" stop-color="#FF7597"/>
</linearGradient>
<linearGradient id="paint2_linear" x1="15.0762" y1="9.92019" x2="16.223" y2="10.1464" gradientUnits="userSpaceOnUse">
<stop stop-color="#F8819E"/>
<stop offset="1" stop-color="#FF7597"/>
</linearGradient>
<linearGradient id="paint3_linear" x1="15.0762" y1="12.8202" x2="16.223" y2="13.0464" gradientUnits="userSpaceOnUse">
<stop stop-color="#F8819E"/>
<stop offset="1" stop-color="#FF7597"/>
</linearGradient>
<linearGradient id="paint4_linear" x1="16.5762" y1="11.4202" x2="17.723" y2="11.6464" gradientUnits="userSpaceOnUse">
<stop stop-color="#F8819E"/>
<stop offset="1" stop-color="#FF7597"/>
</linearGradient>
<linearGradient id="paint5_linear" x1="13.676" y1="11.4202" x2="14.8229" y2="11.6464" gradientUnits="userSpaceOnUse">
<stop stop-color="#F8819E"/>
<stop offset="1" stop-color="#FF7597"/>
</linearGradient>
</defs>
</svg>
