<svg width="29" height="26" viewBox="0 0 29 26" fill="none" xmlns="http://www.w3.org/2000/svg">
<path d="M26.4618 1.36671L26.9326 2.27817C26.964 2.31072 26.9954 2.34328 27.0268 2.37583L27.9057 2.86411C28.0627 2.96177 28.0627 3.15708 27.9057 3.25473L27.0268 3.74302C26.9954 3.77557 26.964 3.80812 26.9326 3.84067L26.4618 4.75213C26.3676 4.91489 26.1793 4.91489 26.0851 4.75213L25.6142 3.84067C25.5829 3.80812 25.5515 3.77557 25.5201 3.74302L24.6412 3.25473C24.4842 3.15708 24.4842 2.92921 24.6412 2.83156L25.5201 2.34328C25.5515 2.31072 25.5829 2.27817 25.6142 2.24562L26.0851 1.33416C26.1479 1.20395 26.3676 1.20395 26.4618 1.36671Z" fill="#3AD4E0"/>
<path d="M6.65464 19.6611L6.99993 20.3122C6.99993 20.3447 7.03132 20.3773 7.06271 20.3773L7.69051 20.7353C7.78468 20.8005 7.78468 20.9632 7.69051 21.0283L7.06271 21.3864C7.03132 21.3864 6.99993 21.4189 6.99993 21.4515L6.65464 22.1025C6.59186 22.2002 6.43491 22.2002 6.37213 22.1025L6.02684 21.4515C6.02684 21.4189 5.99545 21.3864 5.96406 21.3864L5.33625 21.0283C5.24208 20.9632 5.24208 20.8005 5.33625 20.7353L5.96406 20.3773C5.99545 20.3773 6.02684 20.3447 6.02684 20.3122L6.37213 19.6611C6.4663 19.5309 6.59186 19.5309 6.65464 19.6611Z" fill="#3AD4E0"/>
<path d="M2.9193 21.5166L3.39015 22.4281C3.42154 22.4606 3.45293 22.4932 3.48432 22.5257L4.36324 23.014C4.52019 23.1117 4.52019 23.307 4.36324 23.4046L3.48432 23.8929C3.45293 23.9255 3.42154 23.958 3.39015 23.9906L2.9193 24.902C2.82513 25.0648 2.63679 25.0648 2.54262 24.902L2.07176 23.9906C2.04037 23.958 2.00898 23.9255 1.97759 23.8929L1.09867 23.4046C0.941719 23.307 0.941719 23.1117 1.09867 23.014L1.97759 22.5257C2.00898 22.4932 2.04037 22.4606 2.07176 22.4281L2.54262 21.5166C2.63679 21.3538 2.85652 21.3538 2.9193 21.5166Z" fill="#3AD4E0"/>
<path d="M20.7175 7.84505C20.7175 6.51042 21.565 5.40365 22.7265 5.01302V1.26953C22.7265 0.585938 22.1928 0 21.5022 0L1.22422 0C0.533632 0 0 0.553385 0 1.26953V5.01302C1.16143 5.40365 2.00897 6.51042 2.00897 7.84505C2.00897 9.17969 1.16143 10.2865 0 10.7096V14.4531C0 15.1367 0.533632 15.7227 1.22422 15.7227H21.5022C22.1614 15.7227 22.7265 15.1693 22.7265 14.4531V10.7096C21.565 10.2865 20.7175 9.17969 20.7175 7.84505Z" fill="url(#paint0_linear)"/>
<path d="M6.34081 0H1.22422C0.533632 0 0 0.553385 0 1.26953V5.01302C1.16144 5.40365 2.00897 6.51042 2.00897 7.84505C2.00897 9.17969 1.16144 10.2865 0 10.7096V14.4531C0 15.1367 0.533632 15.7227 1.22422 15.7227H6.3722V0H6.34081Z" fill="url(#paint1_linear)"/>
<path d="M6.84321 0H5.87012V1.66016H6.84321V0Z" fill="white"/>
<path d="M6.84321 11.8489H5.87012V8.95174H6.84321V11.8489ZM6.84321 6.7382H5.87012V3.84106H6.84321V6.7382Z" fill="white"/>
<path d="M6.84321 14.0625H5.87012V15.7227H6.84321V14.0625Z" fill="white"/>
<path d="M15.4442 2.96191H10.0137V3.97103H15.4442V2.96191Z" fill="white"/>
<path d="M17.1392 6.12012H10.0137V7.12923H17.1392V6.12012Z" fill="white"/>
<path d="M20.2466 11.1328L20.8744 11.8815C21.1255 12.1745 21.4708 12.2721 21.8161 12.207L22.7264 11.9792C23.2914 11.849 23.8564 12.2721 23.9192 12.8581L24.0134 13.8346C24.0448 14.1927 24.2645 14.5182 24.6098 14.681L25.4887 15.0716C26.0224 15.2995 26.2421 15.9831 25.9282 16.5039L25.4259 17.3503C25.2376 17.6758 25.2376 18.0664 25.4259 18.3919L25.8968 19.2383C26.2107 19.7591 25.991 20.4427 25.4573 20.6706L24.5784 21.0612C24.2645 21.224 24.0134 21.5169 23.982 21.9075L23.8878 22.8841C23.825 23.5026 23.26 23.9258 22.695 23.763L21.7847 23.5352C21.4394 23.4375 21.0627 23.5677 20.843 23.8607L20.2152 24.6094C19.8385 25.0651 19.1479 25.0651 18.7398 24.6094L18.112 23.8607C17.8609 23.5677 17.5156 23.47 17.1703 23.5352L16.26 23.763C15.695 23.8932 15.13 23.47 15.0672 22.8841L14.973 21.9075C14.9416 21.5495 14.7219 21.224 14.3766 21.0612L13.4977 20.6706C12.9641 20.4427 12.7443 19.7591 13.0582 19.2383L13.5291 18.3919C13.7174 18.0664 13.7174 17.6758 13.5291 17.3503L13.0582 16.5039C12.7443 15.9831 12.9641 15.2995 13.4977 15.0716L14.3766 14.681C14.6905 14.5182 14.9416 14.2253 14.973 13.8346L15.0672 12.8581C15.13 12.2396 15.695 11.8164 16.26 11.9792L17.1703 12.207C17.5156 12.3047 17.8923 12.1745 18.112 11.8815L18.7398 11.1328C19.1479 10.6445 19.8385 10.6445 20.2466 11.1328Z" fill="url(#paint2_linear)"/>
<path d="M20.7422 14.7939L17.5918 20.5376L18.2739 20.9399L21.4243 15.1962L20.7422 14.7939Z" fill="white"/>
<path d="M17.9239 17.1876C17.3275 17.1876 16.8253 16.6993 16.7939 16.0808C16.7625 15.7553 16.888 15.4623 17.0764 15.2345C17.2647 15.0066 17.5472 14.8439 17.8611 14.8439C18.175 14.8113 18.4575 14.9415 18.6773 15.1368C18.897 15.3321 19.054 15.6251 19.054 15.9506C19.0853 16.6017 18.6145 17.1551 17.9867 17.1876C17.9553 17.1876 17.9239 17.1876 17.9239 17.1876ZM17.9239 15.6251C17.8925 15.6251 17.8925 15.6251 17.9239 15.6251C17.7984 15.6251 17.7042 15.6902 17.6414 15.7553C17.5786 15.8204 17.5472 15.9181 17.5472 16.0157C17.5472 16.211 17.7356 16.3738 17.9239 16.3738C18.1123 16.3738 18.2692 16.1785 18.2692 15.9832C18.2692 15.8855 18.2064 15.7879 18.1436 15.7228C18.0809 15.6577 17.9867 15.6251 17.9239 15.6251Z" fill="white"/>
<path d="M21.1256 20.8983C20.8431 20.8983 20.5919 20.8006 20.3722 20.6053C20.1525 20.41 19.9955 20.117 19.9955 19.7915C19.9641 19.466 20.0897 19.173 20.278 18.9452C20.4664 18.7173 20.7489 18.5545 21.0628 18.5545C21.3767 18.522 21.6592 18.6522 21.8789 18.8475C22.0987 19.0428 22.2556 19.3358 22.2556 19.6613C22.287 19.9868 22.1615 20.2798 21.9731 20.5077C21.7848 20.7355 21.5023 20.8983 21.1884 20.8983C21.157 20.8983 21.157 20.8983 21.1256 20.8983ZM21.1256 19.3358C21 19.3358 20.9058 19.4009 20.8431 19.466C20.7803 19.5311 20.7489 19.6288 20.7489 19.7264C20.7489 19.8241 20.8117 19.9217 20.8745 19.9868C20.9372 20.0519 21.0314 20.0845 21.1256 20.0845C21.2197 20.0845 21.3139 20.0194 21.3767 19.9543C21.4395 19.8892 21.4709 19.7915 21.4709 19.6939C21.4709 19.5962 21.4081 19.4986 21.3453 19.4335C21.3139 19.3683 21.2197 19.3358 21.1256 19.3358Z" fill="white"/>
<defs>
<linearGradient id="paint0_linear" x1="-6.49664e-07" y1="15.7227" x2="15.6511" y2="20.1849" gradientUnits="userSpaceOnUse">
<stop stop-color="#F8819E"/>
<stop offset="1" stop-color="#FF7597"/>
</linearGradient>
<linearGradient id="paint1_linear" x1="-1.82157e-07" y1="15.7227" x2="4.71493" y2="16.0996" gradientUnits="userSpaceOnUse">
<stop stop-color="#F8819E"/>
<stop offset="1" stop-color="#FF7597"/>
</linearGradient>
<linearGradient id="paint2_linear" x1="19.4932" y1="10.7666" x2="19.4932" y2="24.9512" gradientUnits="userSpaceOnUse">
<stop stop-color="#3AD4E0"/>
<stop offset="1" stop-color="#2EB5BF"/>
</linearGradient>
</defs>
</svg>
