<svg width="28" height="28" viewBox="0 0 28 28" fill="none" xmlns="http://www.w3.org/2000/svg">
<path d="M9.86847 0.101327L10.2365 0.776839C10.2365 0.810615 10.2699 0.844391 10.3034 0.844391L10.9724 1.21592C11.0728 1.28347 11.0728 1.45235 10.9724 1.5199L10.3034 1.89144C10.2699 1.89144 10.2365 1.92521 10.2365 1.95899L9.86847 2.6345C9.80156 2.73583 9.6343 2.73583 9.5674 2.6345L9.19941 1.95899C9.19941 1.92521 9.16596 1.89144 9.13251 1.89144L8.46345 1.5199C8.36309 1.45235 8.36309 1.28347 8.46345 1.21592L9.13251 0.844391C9.16596 0.844391 9.19941 0.810615 9.19941 0.776839L9.5674 0.101327C9.6343 -0.0337756 9.80156 -0.0337756 9.86847 0.101327Z" fill="#3AD4E0"/>
<path d="M6.12186 3.07392L6.62366 4.01964C6.65711 4.05342 6.69056 4.08719 6.72401 4.12097L7.66069 4.6276C7.82796 4.72893 7.82796 4.93158 7.66069 5.03291L6.72401 5.53955C6.69056 5.57332 6.65711 5.6071 6.62366 5.64087L6.12186 6.58659C6.0215 6.75547 5.82079 6.75547 5.72043 6.58659L5.21864 5.64087C5.18518 5.6071 5.15173 5.57332 5.11828 5.53955L4.1816 5.03291C4.01434 4.93158 4.01434 4.72893 4.1816 4.6276L5.11828 4.12097C5.15173 4.08719 5.18518 4.05342 5.21864 4.01964L5.72043 3.07392C5.82079 2.90505 6.05496 2.90505 6.12186 3.07392Z" fill="#3AD4E0"/>
<path d="M25.2234 27.7636C24.8554 27.7636 24.5878 27.4596 24.5878 27.1218V25.3993H16.0573V27.1218C16.0573 27.4934 15.7563 27.7636 15.4217 27.7636C15.0872 27.7636 14.7861 27.4596 14.7861 27.1218V24.082H25.8925V27.1218C25.8925 27.4596 25.5914 27.7636 25.2234 27.7636Z" fill="url(#paint0_linear)"/>
<path d="M24.287 12.8681H16.3252V1.35059H24.287V12.8681ZM17.3957 11.821H23.2499V2.39763H17.3957V11.821Z" fill="url(#paint1_linear)"/>
<path d="M25.5246 26.1759H15.1542C13.7827 26.1759 12.6787 25.0613 12.6787 23.6765V10.4027C12.6787 9.01792 13.7827 7.90332 15.1542 7.90332H25.5246C26.8962 7.90332 28.0001 9.01792 28.0001 10.4027V23.6428C28.0001 25.0276 26.8627 26.1759 25.5246 26.1759Z" fill="url(#paint2_linear)"/>
<path d="M24.7884 11.9905H15.89C15.522 11.9905 15.2544 11.6865 15.2544 11.3488C15.2544 11.011 15.5555 10.707 15.89 10.707H24.7884C25.1564 10.707 25.424 11.011 25.424 11.3488C25.424 11.6865 25.123 11.9905 24.7884 11.9905Z" fill="white"/>
<path d="M24.7887 2.39763H15.8902C15.5891 2.39763 15.355 2.1612 15.355 1.85722C15.355 1.55324 15.5892 1.35059 15.8568 1.35059H24.7552C25.0563 1.35059 25.2905 1.58702 25.2905 1.891C25.2905 2.19498 25.0563 2.39763 24.7887 2.39763Z" fill="url(#paint3_linear)"/>
<path d="M8.99881 13.6116L4.85066 16.111L0 16.415L3.546 28L8.39666 27.696L12.5448 25.1966L17.3955 24.8927L13.8495 13.3076L8.99881 13.6116Z" fill="url(#paint4_linear)"/>
<path d="M13.08 14.4222L15.9904 23.9132L12.4779 24.1158H12.2103L11.9761 24.2509L8.02868 26.649L4.24851 26.8854L1.37157 17.3945L4.88411 17.1918H5.15173L5.3859 17.0567L9.33333 14.6586L13.08 14.4222ZM13.8495 13.3076L8.99881 13.6116L4.85066 16.111L0 16.415L3.546 28L8.39666 27.696L12.5448 25.1966L17.3955 24.8927L13.8495 13.3076Z" fill="url(#paint5_linear)"/>
<path d="M8.12933 11.9898C8.12933 14.2865 5.92145 16.6846 5.01822 17.5628C4.8175 17.7654 4.48298 17.7654 4.24881 17.5628C3.34558 16.6846 1.1377 14.2865 1.1377 11.9898C1.1377 10.8752 1.63949 9.86194 2.47581 9.2202C3.07796 8.74734 3.84737 8.44336 4.65024 8.44336C5.58692 8.44336 6.42324 8.81489 7.02539 9.38908C7.69445 10.0646 8.12933 10.9765 8.12933 11.9898Z" fill="url(#paint6_linear)"/>
<path d="M4.61624 13.646C5.52154 13.646 6.25543 12.905 6.25543 11.9909C6.25543 11.0769 5.52154 10.3359 4.61624 10.3359C3.71094 10.3359 2.97705 11.0769 2.97705 11.9909C2.97705 12.905 3.71094 13.646 4.61624 13.646Z" fill="white"/>
<defs>
<linearGradient id="paint0_linear" x1="14.7861" y1="27.7636" x2="20.8939" y2="31.3979" gradientUnits="userSpaceOnUse">
<stop stop-color="#F8819E"/>
<stop offset="1" stop-color="#FF7597"/>
</linearGradient>
<linearGradient id="paint1_linear" x1="16.3252" y1="12.8681" x2="22.1457" y2="13.6617" gradientUnits="userSpaceOnUse">
<stop stop-color="#F8819E"/>
<stop offset="1" stop-color="#FF7597"/>
</linearGradient>
<linearGradient id="paint2_linear" x1="12.6787" y1="26.1759" x2="23.784" y2="28.0126" gradientUnits="userSpaceOnUse">
<stop stop-color="#F8819E"/>
<stop offset="1" stop-color="#FF7597"/>
</linearGradient>
<linearGradient id="paint3_linear" x1="15.355" y1="2.39763" x2="16.9979" y2="5.4727" gradientUnits="userSpaceOnUse">
<stop stop-color="#F8819E"/>
<stop offset="1" stop-color="#FF7597"/>
</linearGradient>
<linearGradient id="paint4_linear" x1="8.69773" y1="13.3076" x2="8.69773" y2="28" gradientUnits="userSpaceOnUse">
<stop stop-color="#3AD4E0"/>
<stop offset="1" stop-color="#2EB5BF"/>
</linearGradient>
<linearGradient id="paint5_linear" x1="8.69773" y1="13.3076" x2="8.69773" y2="28" gradientUnits="userSpaceOnUse">
<stop stop-color="#3AD4E0"/>
<stop offset="0.0001" stop-color="#25ACB7"/>
<stop offset="1" stop-color="#208F98"/>
</linearGradient>
<linearGradient id="paint6_linear" x1="1.1377" y1="17.7148" x2="6.23133" y2="18.4724" gradientUnits="userSpaceOnUse">
<stop stop-color="#F8819E"/>
<stop offset="1" stop-color="#FF7597"/>
</linearGradient>
</defs>
</svg>
