<svg width="28" height="23" viewBox="0 0 28 23" fill="none" xmlns="http://www.w3.org/2000/svg">
<path d="M10.3636 3.86914H21.6649C22.6785 3.86914 23.5147 4.6696 23.6161 5.73689L25.0604 20.7056C25.1871 21.9329 24.2749 23.0002 23.1093 23.0002H8.81788C7.65227 23.0002 6.74006 21.9329 6.86675 20.7056L8.41245 5.73689C8.51381 4.6696 9.35001 3.86914 10.3636 3.86914Z" fill="url(#paint0_linear)"/>
<path d="M15.9383 10.5129C14.0125 10.5129 12.4668 8.85845 12.4668 6.85706V5.57617H13.3537V6.85706C13.3537 8.37812 14.5193 9.60564 15.9636 9.60564C17.408 9.60564 18.5736 8.37812 18.5736 6.85706V5.57617H19.4605V6.85706C19.4098 8.85845 17.8641 10.5129 15.9383 10.5129Z" fill="white"/>
<path d="M4.28249 11.5H13.8354C14.2915 11.5 14.6716 11.9002 14.6716 12.3805V22.0928C14.6716 22.5731 14.2915 22.9733 13.8354 22.9733H4.28249C3.82638 22.9733 3.44629 22.5731 3.44629 22.0928V12.4072C3.44629 11.9002 3.82638 11.5 4.28249 11.5Z" fill="url(#paint1_linear)"/>
<path d="M0.836199 11.5H5.32127C5.77738 11.5 6.15747 11.9002 6.15747 12.3805V22.0928C6.15747 22.5731 5.77738 22.9733 5.32127 22.9733H0.836199C0.380091 22.9733 0 22.5731 0 22.0928V12.4072C0 11.9002 0.380091 11.5 0.836199 11.5Z" fill="url(#paint2_linear)"/>
<path d="M3.21814 11.5H2.43262V14.8357H3.21814V11.5Z" fill="white"/>
<path d="M13.6072 20.1986L12.7203 19.1045C12.6697 19.0511 12.5683 19.0511 12.5176 19.1045L11.6308 20.1986C11.5801 20.2519 11.6308 20.3587 11.7068 20.3587H12.1629V21.6129H13.1258V20.332H13.5819C13.6326 20.332 13.6579 20.2519 13.6072 20.1986Z" fill="white"/>
<path d="M2.63546 6.16325L3.04089 6.93713C3.06622 6.96381 3.09156 6.9905 3.1169 7.01718L3.85174 7.44414C3.97844 7.5242 3.97844 7.711 3.85174 7.76437L3.1169 8.19133C3.09156 8.21802 3.06622 8.2447 3.04089 8.27139L2.63546 9.04526C2.55944 9.17868 2.38206 9.17868 2.33138 9.04526L1.92595 8.27139C1.90061 8.2447 1.87527 8.21802 1.84994 8.19133L1.14043 7.73768C1.01374 7.65763 1.01374 7.47083 1.14043 7.41746L1.87527 6.9905C1.90061 6.96381 1.92595 6.93713 1.95129 6.91044L2.35672 6.13657C2.4074 6.02983 2.58478 6.02983 2.63546 6.16325Z" fill="#3AD4E0"/>
<path d="M27.0876 3.01512L27.3663 3.54882C27.3663 3.57551 27.3916 3.6022 27.417 3.6022L27.9238 3.89573C27.9998 3.9491 27.9998 4.08253 27.9238 4.1359L27.417 4.42944C27.3916 4.42944 27.3663 4.45612 27.3663 4.48281L27.0876 5.01651C27.0369 5.09657 26.9102 5.09657 26.8595 5.01651L26.5808 4.48281C26.5808 4.45612 26.5554 4.42944 26.5301 4.42944L26.0233 4.1359C25.9473 4.08253 25.9473 3.9491 26.0233 3.89573L26.5301 3.6022C26.5554 3.6022 26.5808 3.57551 26.5808 3.54882L26.8595 3.01512C26.9102 2.93506 27.0369 2.93506 27.0876 3.01512Z" fill="#3AD4E0"/>
<path d="M6.30933 0.106613L6.68943 0.8538C6.71476 0.880485 6.7401 0.90717 6.76544 0.933856L7.47495 1.33413C7.60164 1.41419 7.60164 1.5743 7.47495 1.65436L6.76544 2.05464C6.7401 2.08132 6.71476 2.10801 6.68943 2.13469L6.30933 2.88188C6.23332 3.0153 6.08128 3.0153 6.00526 2.88188L5.62517 2.13469C5.59983 2.10801 5.57449 2.08132 5.54915 2.05464L4.83965 1.65436C4.71295 1.5743 4.71295 1.41419 4.83965 1.33413L5.57449 0.90717C5.59983 0.880485 5.62517 0.8538 5.65051 0.827115L6.0306 0.0799283C6.08128 -0.0268127 6.25866 -0.0268127 6.30933 0.106613Z" fill="#3AD4E0"/>
<defs>
<linearGradient id="paint0_linear" x1="6.85498" y1="23.0002" x2="19.9582" y2="25.4613" gradientUnits="userSpaceOnUse">
<stop stop-color="#F8819E"/>
<stop offset="1" stop-color="#FF7597"/>
</linearGradient>
<linearGradient id="paint1_linear" x1="9.05896" y1="11.5" x2="9.05896" y2="22.9733" gradientUnits="userSpaceOnUse">
<stop stop-color="#3AD4E0"/>
<stop offset="1" stop-color="#2EB5BF"/>
</linearGradient>
<linearGradient id="paint2_linear" x1="3.07873" y1="11.5" x2="3.07873" y2="22.9733" gradientUnits="userSpaceOnUse">
<stop stop-color="#34B9C4"/>
<stop offset="1" stop-color="#259EA8"/>
</linearGradient>
</defs>
</svg>
