<svg xmlns="http://www.w3.org/2000/svg" viewBox="0 0 64 64"><path d="M4.6 31.5V18.3c0-1.3 1.1-2.4 2.4-2.4h18.4c1.3 0 2.4 1.1 2.4 2.4v5.4" fill="none" stroke="#262525" stroke-width="2" stroke-linecap="round" stroke-linejoin="round"/><path d="M12 10.3h8.3c2.5 0 4.6 2 4.6 4.6V16h0H7.4h0v-1.1c0-2.6 2.1-4.6 4.6-4.6zM14.4 2.5l-3.5 7.8h10.6L18 2.5c-.4-1-1.5-1.5-2.5-1.1-.5.2-.9.6-1.1 1.1z" fill="none" stroke="#262525" stroke-width="2" stroke-linecap="round" stroke-linejoin="round"/><path d="M7.5 18.9v10.6c.6-.5 5.4-5.6 17.4-5.7v-5H7.5z" fill="#F06A54"/><path d="M37.6 25.5s4.2.6 7.1-1.7c-1.5-1.8-3.4-3.2-5.5-4 2.2-1.1 4.2-2.4 6.1-3.9-1.2-.7-1.8-2.1-1.3-3.4l.4-1.3-1.5.1c-1.3 0-2.6-.8-2.9-2.1-1.7 1.1-5.5 4.4-5.5 4.4-.3-2.1-1.1-4.1-2.3-5.9-1.7 1.5-2.9 3.5-3.3 5.7M50.9 37.7c2.5-.4 4.8-1.3 6.9-2.7.5-.3 1.1-.5 1.7-.5 1.7.1 3 1.4 3.1 3.1 0 1.7-1.4 3.2-3.1 3.2 0 0 0 0 0 0M1.5 37.7h6.6" fill="none" stroke="#262525" stroke-width="2" stroke-linecap="round" stroke-miterlimit="10"/><path d="M13.8 34.6c-.8 0-1.6.3-2.2.9-.2.2-.3.4-.5.6 1.4-.5 2.9.3 3.4 1.7.3 1 .1 2.1-.6 2.8l-.3.3h.2c1.7 0 3.1-1.4 3.1-3.1 0-1.8-1.4-3.2-3.1-3.2z" fill="#849B3B"/><path d="M26 42.3c2.5 1.9 6.1 1.4 8-1.2 1.9-2.5 1.4-6.1-1.2-8a5.7 5.7 0 00-6.8 0" fill="none" stroke="#262525" stroke-width="2" stroke-linecap="round"/><path d="M29.5 34.6c-.8 0-1.6.3-2.2.9-.2.2-.3.4-.5.6 1.4-.5 3 .2 3.5 1.6.4 1 .1 2.1-.7 2.8l-.3.3h.2c1.7 0 3.1-1.4 3.1-3.1s-1.4-3.1-3.1-3.1zM45.2 34.6c-.8 0-1.6.3-2.2.9-.2.2-.3.4-.5.6 1.4-.5 2.9.3 3.4 1.7.3 1 .1 2.1-.6 2.8l-.3.3h.2c1.7 0 3.1-1.4 3.1-3.1 0-1.8-1.4-3.2-3.1-3.2z" fill="#849B3B"/><path d="M37.3 32c1.2 0 2.1 1 2.1 2.1v7.1c0 1.2-1 2.1-2.1 2.1-1.2 0-2.1-1-2.1-2.1v-7.1c0-1.1.9-2.1 2.1-2.1z" fill="#F06A54"/><path d="M41.9 42.4c2.6 1.8 6.2 1.1 7.9-1.5 1.8-2.6 1.1-6.2-1.5-7.9-1.9-1.3-4.5-1.3-6.4 0M9.8 33.7c2.2-2.2 5.8-2.2 8 0s2.2 5.8 0 8-5.8 2.2-8 0" fill="none" stroke="#262525" stroke-width="2" stroke-linecap="round" stroke-miterlimit="10"/><path d="M21.6 32c1.2 0 2.1 1 2.1 2.1v7.1c0 1.2-1 2.1-2.1 2.1-1.2 0-2.1-1-2.1-2.1v-7.1c0-1.1.9-2.1 2.1-2.1zM16 58.7h32.2c0 2.5-2.1 4.6-4.6 4.6h-23c-2.5 0-4.6-2.1-4.6-4.6z" fill="#F06A54"/><path d="M32 58.7H16c-9.8 0-9.5-7-9.5-7H3.3c-1 0-1.8-.8-1.8-1.8s.8-1.8 1.8-1.8h57.4c1 0 1.8.8 1.8 1.8s-.8 1.8-1.8 1.8h-3.2s.2 7-9.5 7H32z" fill="#849B3B"/><path d="M32 58.7H16c-9.8 0-9.5-7-9.5-7H3.3c-1 0-1.8-.8-1.8-1.8h0c0-1 .8-1.8 1.8-1.8 0 0 0 0 0 0h57.4c1 0 1.8.8 1.8 1.8h0c0 1-.8 1.8-1.8 1.8h-3.2s.2 7-9.5 7H32z" fill="none" stroke="#262525" stroke-width="2" stroke-linecap="round" stroke-miterlimit="10"/><path class="prefix__st4" d="M53.4 33.2c-2.4-4.5-8-6.2-12.5-3.9-1.2-.8-2.6-1.2-4-1-1.1 0-2.2.4-3.2 1.1-2.7-1.4-5.9-1.4-8.5 0-1.2-.8-2.6-1.2-4-1-1.2 0-2.3.3-3.2 1" fill="none" stroke="#262525" stroke-width="2" stroke-linecap="round" stroke-linejoin="round" stroke-dasharray=".01 7"/></svg>