<svg xmlns="http://www.w3.org/2000/svg" viewBox="0 0 64 64"><path fill="none" stroke="#262525" stroke-width="2" stroke-linecap="round" stroke-linejoin="round" d="M31.2 2.6h.2c2.9 0 5.3 2.4 5.3 5.3v.2c0 2.9-2.4 5.3-5.3 5.3h-.2c-2.9 0-5.3-2.4-5.3-5.3v-.3c0-2.9 2.4-5.2 5.3-5.2z"/><circle fill="#F7CF13" cx="31.3" cy="8" r="2.9"/><path fill="none" stroke="#262525" stroke-width="2" stroke-linecap="round" stroke-linejoin="round" stroke-dasharray=".01 7" d="M39.7 20L63 30.9"/><path fill="none" stroke="#262525" stroke-width="2" stroke-linecap="round" stroke-linejoin="round" d="M61.5 34.1L18.1 13.8M34.8 18.4l9.7-4.6M1.1 34.1l26.7-12.5M29.7 35.8c0-3.4-2.7-6.1-6.1-6.1-3.4 0-6.1 2.7-6.1 6.1 0 0 0 0 0 0"/><circle fill="#F06A54" cx="23.6" cy="35.8" r="2.2"/><path fill="none" stroke="#262525" stroke-width="2" stroke-linecap="round" stroke-linejoin="round" d="M46.2 35.8c0-3.4-2.7-6.1-6.1-6.1S34 32.4 34 35.8"/><circle fill="#F06A54" cx="40.1" cy="35.8" r="2.2"/><circle fill="none" stroke="#262525" stroke-width="2" stroke-linecap="round" stroke-linejoin="round" cx="15.4" cy="44.8" r="6.1"/><circle fill="#F06A54" cx="15.4" cy="44.8" r="2.2"/><circle fill="none" stroke="#262525" stroke-width="2" stroke-linecap="round" stroke-linejoin="round" cx="31.8" cy="44.8" r="6.1"/><circle fill="#F06A54" cx="31.8" cy="44.8" r="2.2"/><circle fill="none" stroke="#262525" stroke-width="2" stroke-linecap="round" stroke-linejoin="round" cx="48.3" cy="44.8" r="6.1"/><circle fill="#F06A54" cx="48.3" cy="44.8" r="2.2"/><path fill="#F7CF13" d="M56.7 54.5h3.2c1 0 1.8-.8 1.8-1.8s-.8-1.8-1.8-1.8h-57c-1 0-1.8.8-1.8 1.8s.8 1.8 1.8 1.8H6l2 4c.9 1.8 2.8 3 4.8 3h36.9c2 0 3.9-1.1 4.8-3l2.2-4z"/><path fill="none" stroke="#262525" stroke-width="2" stroke-linecap="round" stroke-miterlimit="10" d="M56.7 54.5h3.2c1 0 1.8-.8 1.8-1.8h0c0-1-.8-1.8-1.8-1.8h-57c-1 0-1.8.8-1.8 1.8h0c0 1 .8 1.8 1.8 1.8H6l2 4c.9 1.8 2.8 3 4.8 3h36.9c2 0 3.9-1.1 4.8-3l2.2-4zM6 54.5h9.4"/></svg>