<svg xmlns="http://www.w3.org/2000/svg" viewBox="0 0 64 64"><path fill="#FBAB1A" d="M20.3 57.9v.1c-.5 1.5.4 3.2 1.9 3.6.3.1.5.1.8.1h20.5c1.6 0 2.9-1.4 2.9-3 0-.3 0-.5-.1-.8v-.1"/><path fill="#F1EDDB" d="M6 39.1S6.6 53 20.3 57.9h25.9C60 53 60.5 39.1 60.5 39.1"/><path fill="none" stroke="#262525" stroke-width="2" stroke-linecap="round" stroke-linejoin="round" d="M6 39.1S6.6 53 20.3 57.9h25.9C60 53 60.5 39.1 60.5 39.1M5.2 30.1C4.5 24.4 7.8 19 13.1 17M8.5 30.1c-.6-3.8 1.2-7.5 4.5-9.4M28.8 17.9c3.5-5.9 11.1-7.8 17-4.3 5.7 3.4 7.7 10.7 4.5 16.5"/><path fill="none" stroke="#262525" stroke-width="2" stroke-linecap="round" stroke-linejoin="round" d="M32.3 18.6c2.9-4.1 8.6-5 12.7-2.1s5 8.6 2.1 12.7c-.2.3-.5.6-.7.9M16.4 24.4c-2.9-6.2-.2-13.6 6.1-16.5 4.3-2 9.4-1.3 13.1 1.7M39.9 17.5c.3 2.3 0 4.7-1 6.8"/><path fill="none" stroke="#262525" stroke-width="2" stroke-linecap="round" stroke-linejoin="round" d="M19.3 21.3c-1.2-4.6 1.6-9.3 6.2-10.5 2.1-.5 4.2-.3 6.1.7M36.2 18.2c.1.9.1 1.9-.1 2.8M53.4 18.7c4.7 1 8 5.2 8 10 0 .5 0 1-.1 1.4M54 22c3.2 1.3 5.1 4.7 4.4 8.1M38.2 30.1c-.4-5.8-5.4-10.2-11.2-9.8-5.2.4-9.4 4.5-9.8 9.8"/><path fill="none" stroke="#262525" stroke-width="2" stroke-linecap="round" stroke-linejoin="round" d="M20.5 30.1c.4-4 3.9-6.9 7.9-6.5 3.4.3 6.1 3 6.5 6.5"/><path fill="#FBAB1A" d="M60.6 39.1H6c-1.6 0-2.9-1.3-2.9-2.9 0-1.6 1.3-2.9 2.9-2.9h54.6c1.6 0 2.9 1.3 2.9 2.9 0 1.6-1.3 2.9-2.9 2.9z"/><path fill="none" stroke="#262525" stroke-width="2" stroke-linecap="round" stroke-linejoin="round" stroke-dasharray=".01 7" d="M8.3 15.6c-4.2 3-6.8 7.9-6.8 13M37.8 6.9C31 1.2 21 2.2 15.3 9c-.9 1.1-1.6 2.2-2.2 3.5m40.7 4.2C51.1 11.3 45.6 8 39.6 8"/></svg>