<svg xmlns="http://www.w3.org/2000/svg" viewBox="0 0 64 64"><path d="M46.6 54.8v1.8c0 1.4-1.2 2.6-2.6 2.6H20c-1.4 0-2.6-1.2-2.6-2.6v-1.9" fill="#849B3B"/><path d="M40.6 55h4.1c6.7 0 12.4-5.1 13.1-11.8v-.8H61c1 0 1.9-.8 1.9-1.8s-.8-1.9-1.8-1.9H2.9c-1 0-1.9.8-1.9 1.9 0 1 .8 1.9 1.9 1.9h3.2v.8C6.8 49.9 12.5 55 19.3 55h21.3z" fill="#F7CF13"/><path d="M14.2 57.7C8.7 56 4.4 51.5 3 45.9" fill="none" stroke="#262525" stroke-width="2" stroke-linecap="round" stroke-linejoin="round" stroke-dasharray=".01 7"/><path d="M40.6 55h4.1c6.7 0 12.4-5.1 13.1-11.8v-.8H61c1 0 1.9-.8 1.9-1.8 0 0 0 0 0 0h0c0-1-.8-1.9-1.8-1.9 0 0 0 0 0 0H2.9c-1 0-1.9.8-1.9 1.9 0 0 0 0 0 0h0c0 1 .8 1.9 1.9 1.9h3.2v.8C6.8 49.9 12.5 55 19.3 55h21.3zM21.3 23s1.2-3.9-.6-7c-1.9 1.1-3.5 2.7-4.5 4.7-.8-2.2-1.7-4.3-2.9-6.3-.8 1-2.2 1.4-3.4.8l-1.2-.6c0 .6-.1 1-.2 1.4-.2 1.3-1.2 2.3-2.4 2.4.8 1.7 3.4 5.8 3.4 5.8-2 0-4 .5-5.9 1.4 1.1 1.8 2.8 3.2 4.8 3.9M21.9 30.3c.9 1.4 2.7 1.8 4 .9 1.4-.9 1.8-2.7.9-4l6.7-4.3c2.4 3.8 2.2 8.6-.4 12.2M58.5 31.8l-3.1-5.6c-1.4.8-3.2.3-4-1.1-.8-1.4-.3-3.2 1.1-4l-4-6.9C43.7 17 41.7 22.9 44 28M6.2 38.7c0-4.4 3.6-8 8-8s8 3.6 8 8M14.2 33.8v1M10.8 35.3l.6.6M17.6 35.3l-.6.6M37.3 38.7c0-4.4 3.6-8 8-8s8 3.6 8 8M45.3 33.8v1M41.8 35.3l.7.6M48.7 35.3l-.7.6M13.2 23l2.2 4.4" fill="none" stroke="#262525" stroke-width="2" stroke-linecap="round" stroke-miterlimit="10"/><ellipse transform="rotate(-31.761 36.522 14.18)" cx="36.5" cy="14.2" rx="6" ry="4.8" fill="#849B3B"/><ellipse transform="rotate(-31.761 36.522 14.18)" cx="36.5" cy="14.2" rx="6" ry="4.8" fill="none" stroke="#262525" stroke-width="2" stroke-linecap="round" stroke-miterlimit="10"/><path d="M42 14.7c-1.9.4-3.8-.8-4.2-2.8-.2-1 0-2.1.7-2.9M31.4 17.4l-5.7 3.7M25.3 18.4S21.9 11 27.1 5.9c2.2 1.4 3.9 3.4 4.9 5.8" fill="none" stroke="#262525" stroke-width="2" stroke-linecap="round" stroke-miterlimit="10"/><path fill="none" stroke="#262525" stroke-width="2" stroke-linecap="round" stroke-linejoin="round" stroke-dasharray=".01 7" d="M52 13.3l4.6 8.1h.1l4.8 8.7"/><path d="M58.5 31.8l-3.1-5.6c-1.4.8-3.2.3-4-1.1-.8-1.4-.3-3.2 1.1-4l-4-6.9C43.7 17 41.7 22.9 44 28" fill="none" stroke="#262525" stroke-width="2" stroke-linecap="round" stroke-miterlimit="10"/></svg>