<svg xmlns="http://www.w3.org/2000/svg" viewBox="0 0 64 64"><path fill="#F26756" d="M19.7 57.2v.1c-.5 1.5.3 3.2 1.8 3.7.3.1.6.2.9.1h20.8c1.6 0 2.9-1.3 2.9-2.9 0-.3 0-.6-.1-.9v-.1"/><path fill="none" stroke="#262525" stroke-width="2" stroke-linecap="round" stroke-linejoin="round" stroke-dasharray=".01 7" d="M19.1 60.9l-.6-.2C2.4 54.9 1.5 39 1.5 38.3"/><path fill="#F1EDDB" d="M5.2 38.1s.6 14.1 14.5 19.1H46c14-5 14.5-19.1 14.5-19.1"/><path fill="none" stroke="#262525" stroke-width="2" stroke-linecap="round" stroke-linejoin="round" d="M5.2 38.1s.6 14.1 14.5 19.1H46c14-5 14.5-19.1 14.5-19.1"/><g fill="none" stroke="#262525" stroke-width="2" stroke-linecap="round" stroke-miterlimit="10"><path d="M11.8 26.9c0 .7.1 1.5.4 2.2M11.8 26.9c0-3.7 3-6.7 6.7-6.7.6 0 1.2.1 1.7.2"/><path d="M11.8 26.9H7.1c-2.2 0-4-1.8-4-4 0-1.2.6-2.4 1.6-3.2-1.8-1.4-2.1-3.9-.7-5.7.9-1.2 2.5-1.8 4-1.5h0c-.7-2.1.4-4.4 2.5-5.2 1.3-.5 2.7-.2 3.8.6.5-2.2 2.6-3.6 4.8-3.1 1.5.3 2.8 1.5 3.1 3.1 1.8-1.3 4.2-.9 5.5.8.5.5.9 1.2 1 1.9M8 12.5l1.2 1.1M14.2 7.9c-.2.9-.1 1.8.4 2.5M22.1 7.8c.2 1 0 1.9-.5 2.8"/></g><g fill="none" stroke="#262525" stroke-width="2" stroke-linecap="round"><path stroke-linejoin="round" d="M60.6 32c-.5-5.3-2.3-10.5-5.4-14.9C45.3 4.4 36.5 7 36.5 7l12.8 16.5c.7.9.6 2.2-.3 3-.8.6-1.9.6-2.7 0L29.9 13.6s-2.1 7 6.5 15.6"/><path stroke-miterlimit="10" d="M39.4 21c2.2-.5 4-2.3 4.5-4.5M35 17.6s3.8-.6 5.5-5.5M43.4 24.2c1.8-.5 3.2-1.9 3.6-3.7"/></g><path fill="none" stroke="#262525" stroke-width="2" stroke-linecap="round" stroke-miterlimit="10" d="M21.1 32.2c-1.5-5.3.7-11 5.6-12.3"/><path fill="#F06A54" d="M24.4 25.1c-.6 1.2-1 2.5-1 3.8h8.7c-1.8-2.4-4.7-6.2-4.7-6.2-1.2.3-2.3 1.2-3 2.4z"/><path fill="#F26756" d="M60.5 38.1H5.1c-1.6 0-3-1.3-3-3 0-1.6 1.3-3 3-3h55.4c1.6 0 3 1.3 3 3s-1.3 3-3 3z"/><path fill="none" stroke="#262525" stroke-width="2" stroke-miterlimit="10" d="M8.5 23.5s3.1-11.6 16.9-8.7"/><path fill="none" stroke="#262525" stroke-width="2" stroke-linecap="round" stroke-linejoin="round" stroke-dasharray=".01 7" d="M58.2 14.9h0C46.8.3 35.9 3.3 35.5 3.4"/></svg>