<svg xmlns="http://www.w3.org/2000/svg" viewBox="0 0 64 64"><path fill="none" stroke="#262525" stroke-width="2" stroke-linecap="round" stroke-linejoin="round" stroke-dasharray=".01 7" d="M50 14.3v1.4c0 3-.6 5.9-1.9 8.6"/><path fill="none" stroke="#262525" stroke-width="2" stroke-linecap="round" stroke-linejoin="round" d="M21.8 25.9c-2.6-2.8-4-6.4-3.9-10.2 0-2 .4-4.1 1.3-5.9m6.8 4.1c-.2.6-.3 1.1-.3 1.7 0 3.8 2.4 6.3 5.5 7.7m-3.5-12.2c2.5-2.4 6.4-2.2 8.8.3.7.7 1.2 1.6 1.4 2.5M21.2 6.6c5-6 13.9-6.8 19.9-1.8 1.6 1.3 2.9 3 3.8 4.9m1 3.3c.2.9.3 1.8.3 2.7 0 4.2-1.7 8.3-4.8 11.1-1.5 1.4-3.3 2.6-5.2 3.5"/><path fill="none" stroke="#262525" stroke-width="2" stroke-linecap="round" stroke-linejoin="round" d="M42.2 15.2v.5c0 16.4-29.8 14.5-29.8 14.5M24.4 8.9c3.8-4.2 10.2-4.6 14.4-.9 1.2 1 2.1 2.3 2.6 3.7"/><path fill="none" stroke="#262525" stroke-width="2" stroke-linecap="round" stroke-linejoin="round" d="M26.5 24.8c-3-2.1-4.7-5.5-4.7-9.2 0-1.3.3-2.6.8-3.9M45.4 26.1c3.4.2 7.8 0 7.9 0M53.5 30.1c-3.5.1-7 .1-10.5-.2M38 13.9L58.1 1.5"/><path fill="none" stroke="#262525" stroke-width="2" stroke-linecap="round" stroke-linejoin="round" stroke-dasharray=".01 7" d="M15.2 11.8l-11.3-7"/><path fill="none" stroke="#262525" stroke-width="2" stroke-linecap="round" stroke-linejoin="round" d="M32 17.6L5.9 1.5"/><path fill="#849B3B" d="M20.6 59.8v.1c-.5 1.4.3 3 1.7 3.5.3.1.6.1.8.1h19.7c1.5 0 2.8-1.2 2.8-2.7 0-.3 0-.6-.1-.9v-.1"/><path fill="#F06A54" d="M53.4 49.8c-5.5 1.4-11.3 1.5-16.8.3-4.1-1-7.9-2.9-12-3.8-5.4-1.1-11.1-.2-15.9 2.4 2.2 5.2 6.6 9.2 11.9 11h24.9c5.3-1.8 9.7-5.8 11.9-11-1.4.5-2.7.8-4 1.1z"/><path fill="none" stroke="#262525" stroke-width="2" stroke-linecap="round" stroke-linejoin="round" stroke-dasharray=".01 7" d="M14.2 61C3.6 54.3 2.9 42.4 2.9 41.8"/><path fill="none" stroke="#262525" stroke-width="2" stroke-linecap="round" stroke-linejoin="round" d="M6.8 41.7S7.3 55 20.6 59.8h24.9C58.7 55 59.2 41.7 59.2 41.7"/><path fill="#849B3B" d="M59.2 41.7H6.7c-1.6 0-2.8-1.2-2.8-2.8 0-1.6 1.3-2.8 2.8-2.8h52.5c1.5 0 2.8 1.3 2.8 2.8 0 1.5-1.2 2.8-2.8 2.8z"/></svg>