<svg xmlns="http://www.w3.org/2000/svg" viewBox="0 0 64 64"><path fill="#FBAB1A" d="M47.3 41.9c-3.5.6-7.1.4-10.5-.5-3.4-.9-6.9-1.5-10.4-1.9-2.8-.2-5.6.2-8.2 1.3 1.3 4.4 4 9.9 10.1 12h20.1c8.3-3 10.4-12.2 10.9-16.1-4 1.6-7.8 4.3-12 5.2z"/><path fill="#849B3B" d="M28.3 52.8c-.4 1.3.3 2.5 1.4 2.9.2.1.5.1.7.1h15.9c1.2 0 2.2-1 2.2-2.2 0-.2 0-.5-.1-.7v-.1"/><path fill="none" stroke="#262525" stroke-width="2" stroke-linecap="round" stroke-miterlimit="10" d="M51.6 21.9c-.1-1.6.4-3.2 1.5-4.5 1.1 1 1.9 2.3 2.3 3.8.8-1.3 1.8-2.6 2.9-3.7.4.8 1.3 1.2 2.1 1l.9-.2c0 .4-.1.7-.1 1-.1.8.4 1.6 1.2 1.9-.8 1-3.1 3.3-3.1 3.3 1.3.3 2.6 1 3.6 1.8-1 1-2.4 1.7-3.8 1.8"/><path fill="none" stroke="#262525" stroke-width="2" stroke-linecap="round" stroke-miterlimit="10" d="M56.8 23.1l-1.7 2c-1.3 1.4-1.2 3.6.2 4.8.1.1.2.2.3.2"/><path fill="none" stroke="#262525" stroke-width="2" stroke-linecap="round" stroke-linejoin="round" d="M17.2 34.8s.4 14.2 11.1 18h20.1c10.7-3.8 11.1-18 11.1-18"/><path fill="none" stroke="#262525" stroke-width="2" stroke-linecap="round" stroke-linejoin="round" d="M17.2 34.8s.4 14.2 11.1 18h20.1c10.7-3.8 11.1-18 11.1-18M9 51.8c-2.4-3.7-4.8-11.3-4.8-20M23 55.8H10.6c-.9 0-1.6-.7-1.6-1.6v-2.4h10.7M26.7 25.8h-9.8c-2.3 0-4.4.4-5.6 2.3l-2.4 4.1-4-6.1c-.5-.7-.7-1.5-.7-2.4v-.1c0-.8.6-1.4 1.4-1.4H29c1.3 0 2.3 1 2.3 2.3 0 0 0 0 0 0 0 1.9-.2 3.7-.7 5.6M36.3 16.6l.4-.4c.9-.9.9-2.5 0-3.4l-.4-.4-.4-.4c-.9-.9-.9-2.5 0-3.4l.4-.4M41 16.6l.4-.4c.9-.9.9-2.5 0-3.4l-.4-.3-.4-.4c-.9-.9-.9-2.5 0-3.4l.4-.4M45.6 16.6l.4-.4c.9-.9.9-2.5 0-3.4l-.4-.4-.4-.4c-.9-.9-.9-2.5 0-3.4l.4-.4M35.3 27.7c-.5-.5-.5-1.4 0-1.9l2.2-2.2c.5-.5 1.4-.5 1.9 0l2.3 2.3c.5.5.5 1.4 0 1.9M42.3 23.5l1.4-1.5c.7-.7 1.8-.7 2.5 0l3 3c.7.7.7 1.8 0 2.5"/><path fill="#849B3B" d="M59.6 34.8H17.1c-1.2 0-2.3-1-2.3-2.2 0-1.3 1-2.3 2.3-2.3h42.4c1.2 0 2.3 1 2.3 2.3 0 1.1-1 2.1-2.2 2.2z"/><path fill="none" stroke="#262525" stroke-width="2" stroke-linecap="round" stroke-linejoin="round" d="M59.6 34.8H17.1c-1.2 0-2.3-1-2.3-2.2h0c0-1.3 1-2.3 2.3-2.3h42.4c1.2 0 2.3 1 2.3 2.3h0c0 1.1-1 2.1-2.2 2.2z"/><path fill="none" stroke="#262525" stroke-width="2" stroke-linecap="round" stroke-linejoin="round" stroke-dasharray=".01 7" d="M.8 31.8c0 9.3 2.5 16.8 4.8 20.9"/></svg>