<svg xmlns="http://www.w3.org/2000/svg" viewBox="0 0 64 64"><path fill="#DDDDCB" d="M17.9 58.2v.1c-.5 1.5.4 3.2 1.9 3.6.3.1.5.1.8.1h20.8c1.6 0 2.9-1.3 2.9-2.9 0-.3 0-.6-.1-.9v-.1"/><path fill="#F1EDDB" d="M3.4 39.1S4 53.2 17.9 58.2h26.2c13.9-5 14.5-19 14.5-19"/><path fill="none" stroke="#262525" stroke-width="2.5" stroke-linecap="round" stroke-linejoin="round" stroke-dasharray=".01 7" d="M62.4 39.2c0 .6-.7 14.6-14 21.2"/><path fill="none" stroke="#262525" stroke-width="2.5" stroke-linecap="round" stroke-linejoin="round" d="M3.4 39.1S4 53.2 17.9 58.2h26.2c13.9-5 14.5-19 14.5-19"/><path fill="none" stroke="#262525" stroke-width="2.5" stroke-linecap="round" stroke-miterlimit="10" d="M32.8 29.9c-2.1-3.3-4.5-6.3-7.2-9.1-4-3.9-8.5-7.2-13.4-9.8.4-1.9-.8-3.8-2.7-4.3-2-.3-3.9.9-4.3 2.8-.3 1.2.1 2.5.9 3.3l.3.2c-2-.1-3.7 1.3-3.8 3.3-.1 1.4.6 2.7 1.9 3.4-1.9.5-3 2.4-2.5 4.4.4 1.6 1.8 2.6 3.4 2.7-1 .7-1.5 1.7-1.5 2.9"/><path fill="#F7CF13" d="M10.4 15.4C8.2 20.2 8.8 25.7 11.8 30c-1.6-6.1 4.1-9 9.6-6.6-3.2-3-6.8-5.6-10.7-7.7l-.3-.3z"/><path fill="none" stroke="#262525" stroke-width="2.5" stroke-linecap="round" stroke-linejoin="round" d="M27.8 16.1c1.5-1.5 3.9-1.5 5.3 0 .3.3.5.5.6.9.5-2 2.6-3.2 4.6-2.7 1.6.4 2.8 1.9 2.8 3.6 1.3-1.6 3.6-1.9 5.3-.7 1.2.9 1.7 2.5 1.3 3.9 1.7-1.1 4.1-.7 5.2 1.1.8 1.3.8 2.9 0 4.2 2-.6 4.1.5 4.7 2.5.1.3.1.6.2.8M49.6 15.5c4.2-2.9.6-8.2-2.7-5.7.5-2-.8-4.1-2.8-4.5-1.5-.3-3 .2-3.9 1.4-.1-2.1-1.9-3.7-3.9-3.6-1.6.1-3 1.2-3.5 2.8-.8-1.9-3-2.8-4.9-2.1-1.6.6-2.5 2.2-2.4 3.9-1.4-1.2-3.5-1.3-4.9-.1-.8.7-1.3 1.7-1.2 2.8v.4"/><path fill="#FBAB1A" d="M29.6 20.3s5 5.3 7.2 9.7h15.5c-5.2-7.2-13.9-10.9-22.7-9.7z"/><path fill="#849B3B" d="M58.6 39.1H3.3c-1.6 0-3-1.3-3-3 0-1.6 1.3-3 3-3h55.3c1.6 0 3 1.3 3 3s-1.3 3-3 3z"/></svg>