<svg xmlns="http://www.w3.org/2000/svg" viewBox="0 0 24 24"><path d="M10.1 13.143H8.578a.833.833 0 00-.83.83v1.383a.833.833 0 00.83.83H10.1a.833.833 0 00.83-.83v-1.38a.833.833 0 00-.83-.833zM15.634 15.357v-1.381a.833.833 0 00-.83-.83H13.42a.833.833 0 00-.83.83v1.383a.833.833 0 00.83.83h1.383a.833.833 0 00.831-.832zM10.1 8.578H8.578a.833.833 0 00-.83.83v1.384a.833.833 0 00.83.83H10.1a.833.833 0 00.83-.83V9.411a.833.833 0 00-.83-.833zM13.42 11.622h1.383a.833.833 0 00.83-.83V9.411a.833.833 0 00-.83-.83H13.42a.833.833 0 00-.83.83v1.383a.833.833 0 00.83.828zM10.1 4.151H8.578a.833.833 0 00-.83.83v1.383a.833.833 0 00.83.83H10.1a.833.833 0 00.83-.83V4.981a.833.833 0 00-.83-.83zM13.42 7.195h1.383a.833.833 0 00.83-.83V4.981a.833.833 0 00-.83-.83H13.42a.833.833 0 00-.83.83v1.383a.833.833 0 00.83.831z"/><path d="M19.369 4.441V.83a.833.833 0 00-.83-.83h-13.7a.833.833 0 00-.83.83v3.611l-3.777 3.9a.816.816 0 00-.235.581v14.6a.833.833 0 00.83.83h7.609a.82.82 0 00.706-.4.838.838 0 00.4-.706v-3.185h4.289v3.182a.847.847 0 00.595.8.814.814 0 00.65.3h7.471a.833.833 0 00.83-.83V8.924a.816.816 0 00-.235-.581zM1.66 9.256l2.352-2.435V22.69H1.66zM8.716 18.4a.833.833 0 00-.83.83v3.46H5.672V1.66h12.037v21.03h-2.214v-3.459a.833.833 0 00-.83-.83H8.716zm13 4.289h-2.347V6.821l2.352 2.435z"/></svg>