<svg xmlns="http://www.w3.org/2000/svg" width="16.813" height="18" viewBox="0 0 16.813 18">
  <g transform="translate(-225.551 -347.018)">
    <path d="M284.4,43.844c-.455-1.538-.929-3.071-1.4-4.618l.428-.3a2.523,2.523,0,0,0-.054-4.213,1.3,1.3,0,0,0-1.866.329c-.279.361-.542.733-.708.959a24.889,24.889,0,0,0-9.1,0c-.572-.569-.816-1.887-2.148-1.481a2.537,2.537,0,0,0-1.668,2.09c-.276,1.3.57,2,1.62,2.565-.252.861-.492,1.689-.737,2.516s-.527,1.656-.745,2.5a3.822,3.822,0,0,0,1.939,4.587c2.043,1.071,4.19,3.035,6.265,3.67,2.005-.548,4.084-2.5,6.06-3.525A3.925,3.925,0,0,0,284.4,43.844Zm-12.241-3.886a9.22,9.22,0,0,1,1.051.007,1.247,1.247,0,0,1,1.141,1.615.492.492,0,0,1-.312.318A1.8,1.8,0,0,1,272.156,39.958Zm7.626,7.391a3.6,3.6,0,0,1-7.1-.976,5.144,5.144,0,0,1,1.981-3.588,2.3,2.3,0,0,1,3.154-.024A4.911,4.911,0,0,1,279.781,47.349Zm-1.31-5.451a.491.491,0,0,1-.312-.318,1.247,1.247,0,0,1,1.141-1.615,9.222,9.222,0,0,1,1.051-.007A1.8,1.8,0,0,1,278.471,41.9Z" transform="translate(-42.28 312.568)" />
    <path d="M285.852,62.146a2.607,2.607,0,0,1-1.707-.972,1.209,1.209,0,0,1-.01-1.683,2.5,2.5,0,0,1,3.4-.048,1.261,1.261,0,0,1-.128,1.892A2.526,2.526,0,0,1,285.852,62.146Z" transform="translate(-51.894 297.908)" />
    <path d="M287.02,66.212a.828.828,0,0,1,.155.293,1,1,0,0,1,.049.34.961.961,0,0,1-.1.408.9.9,0,0,1-.138.183.575.575,0,0,1-.179.131.557.557,0,0,1-.189.065.488.488,0,0,1-.171.012.635.635,0,0,1-.24-.051.757.757,0,0,1-.084-.037s.031-.018.082-.042a2.006,2.006,0,0,0,.2-.094.937.937,0,0,0,.214-.146.51.51,0,0,0,.086-.095.543.543,0,0,0,.071-.111,2.334,2.334,0,0,0,.174-.549C286.984,66.345,287.02,66.212,287.02,66.212Z" transform="translate(-53.295 293.444)" />
    <path d="M288.929,66.212s.035.133.072.306a2.313,2.313,0,0,0,.174.549.559.559,0,0,0,.071.111.524.524,0,0,0,.086.095.928.928,0,0,0,.214.146,1.969,1.969,0,0,0,.2.094c.051.025.082.042.082.042a.76.76,0,0,1-.084.037.636.636,0,0,1-.24.051.487.487,0,0,1-.17-.012.554.554,0,0,1-.189-.065.57.57,0,0,1-.179-.131.9.9,0,0,1-.138-.183.96.96,0,0,1-.1-.408,1,1,0,0,1,.049-.34A.822.822,0,0,1,288.929,66.212Z" transform="translate(-54.86 293.444)" />
  </g>
</svg>
