<svg xmlns="http://www.w3.org/2000/svg" width="19.314" height="20.678" viewBox="0 0 19.314 20.678">
  <g id="Group_13" data-name="Group 13" transform="translate(-225.551 -347.018)">
    <path id="Path_1" data-name="Path 1" d="M286.861,45.242c-.523-1.767-1.067-3.527-1.607-5.305l.491-.341a2.9,2.9,0,0,0-.062-4.84,1.494,1.494,0,0,0-2.144.378c-.32.415-.623.842-.814,1.1a28.592,28.592,0,0,0-10.451.005c-.657-.654-.937-2.168-2.468-1.7a2.915,2.915,0,0,0-1.916,2.4c-.317,1.5.655,2.3,1.861,2.946-.289.989-.565,1.94-.847,2.89s-.606,1.9-.856,2.867a4.391,4.391,0,0,0,2.228,5.269c2.347,1.231,4.813,3.486,7.2,4.216,2.3-.629,4.691-2.871,6.961-4.049A4.509,4.509,0,0,0,286.861,45.242ZM272.8,40.777a10.592,10.592,0,0,1,1.208.008,1.432,1.432,0,0,1,1.311,1.855.565.565,0,0,1-.359.366A2.071,2.071,0,0,1,272.8,40.777Zm8.76,8.491a4.134,4.134,0,0,1-8.157-1.121,5.91,5.91,0,0,1,2.276-4.122A2.638,2.638,0,0,1,279.3,44,5.642,5.642,0,0,1,281.559,49.268Zm-1.5-6.262a.564.564,0,0,1-.359-.366,1.432,1.432,0,0,1,1.311-1.855,10.594,10.594,0,0,1,1.208-.008A2.071,2.071,0,0,1,280.054,43.005Z" transform="translate(-42.28 312.568)"/>
    <path id="Path_5" data-name="Path 5" d="M286.157,62.644a3,3,0,0,1-1.961-1.117,1.389,1.389,0,0,1-.011-1.933,2.87,2.87,0,0,1,3.908-.055,1.449,1.449,0,0,1-.147,2.174A2.9,2.9,0,0,1,286.157,62.644Z" transform="translate(-50.949 299.35)" fill="#15182c"/>
    <path id="Path_6" data-name="Path 6" d="M287.153,66.212a.952.952,0,0,1,.178.336,1.144,1.144,0,0,1,.056.39,1.1,1.1,0,0,1-.113.469,1.035,1.035,0,0,1-.159.21.661.661,0,0,1-.206.15.64.64,0,0,1-.217.075.561.561,0,0,1-.2.013.73.73,0,0,1-.275-.059.871.871,0,0,1-.1-.043s.036-.02.095-.048a2.3,2.3,0,0,0,.225-.108,1.076,1.076,0,0,0,.245-.168.585.585,0,0,0,.1-.109.622.622,0,0,0,.082-.127,2.68,2.68,0,0,0,.2-.631C287.112,66.365,287.153,66.212,287.153,66.212Z" transform="translate(-52.212 295.324)"/>
    <path id="Path_7" data-name="Path 7" d="M288.959,66.212s.041.153.083.352a2.658,2.658,0,0,0,.2.631.641.641,0,0,0,.081.127.6.6,0,0,0,.1.109,1.066,1.066,0,0,0,.245.168,2.258,2.258,0,0,0,.225.108c.059.028.095.048.095.048a.875.875,0,0,1-.1.043.731.731,0,0,1-.276.059.559.559,0,0,1-.2-.013.636.636,0,0,1-.217-.075.655.655,0,0,1-.206-.15,1.033,1.033,0,0,1-.159-.21,1.1,1.1,0,0,1-.113-.469,1.144,1.144,0,0,1,.056-.39A.943.943,0,0,1,288.959,66.212Z" transform="translate(-53.623 295.324)"/>
  </g>
</svg>
