<svg id="building-house" xmlns="http://www.w3.org/2000/svg" width="23.381" height="24.35" viewBox="0 0 23.381 24.35">
  <g id="Group_107" data-name="Group 107" transform="translate(0)">
    <path id="Path_184" data-name="Path 184" d="M170.935,269.167h-1.522a.833.833,0,0,0-.83.83v1.383a.833.833,0,0,0,.83.83h1.522a.833.833,0,0,0,.83-.83V270A.833.833,0,0,0,170.935,269.167Z" transform="translate(-160.835 -256.024)" fill="#944efc"/>
    <path id="Path_185" data-name="Path 185" d="M270.794,271.381V270a.833.833,0,0,0-.83-.83H268.58a.833.833,0,0,0-.83.83v1.383a.833.833,0,0,0,.83.83h1.383A.833.833,0,0,0,270.794,271.381Z" transform="translate(-255.16 -256.024)" fill="#944efc"/>
    <path id="Path_186" data-name="Path 186" d="M170.935,175.667h-1.522a.833.833,0,0,0-.83.83v1.384a.833.833,0,0,0,.83.83h1.522a.833.833,0,0,0,.83-.83V176.5A.833.833,0,0,0,170.935,175.667Z" transform="translate(-160.835 -167.089)" fill="#944efc"/>
    <path id="Path_187" data-name="Path 187" d="M268.58,178.711h1.383a.833.833,0,0,0,.83-.83V176.5a.833.833,0,0,0-.83-.83H268.58a.833.833,0,0,0-.83.83v1.383A.833.833,0,0,0,268.58,178.711Z" transform="translate(-255.16 -167.089)" fill="#944efc"/>
    <path id="Path_188" data-name="Path 188" d="M170.935,85h-1.522a.833.833,0,0,0-.83.83v1.383a.833.833,0,0,0,.83.83h1.522a.833.833,0,0,0,.83-.83V85.83A.833.833,0,0,0,170.935,85Z" transform="translate(-160.835 -80.849)" fill="#944efc"/>
    <path id="Path_189" data-name="Path 189" d="M268.58,88.044h1.383a.833.833,0,0,0,.83-.83V85.83a.833.833,0,0,0-.83-.83H268.58a.833.833,0,0,0-.83.83v1.383A.833.833,0,0,0,268.58,88.044Z" transform="translate(-255.16 -80.849)" fill="#944efc"/>
    <path id="Path_190" data-name="Path 190" d="M29.285,4.441V.83a.833.833,0,0,0-.83-.83h-13.7a.833.833,0,0,0-.83.83V4.441l-3.777,3.9a.816.816,0,0,0-.235.581v14.6a.833.833,0,0,0,.83.83h7.609a.82.82,0,0,0,.706-.4.838.838,0,0,0,.4-.706V20.061h4.289v3.182a.847.847,0,0,0,.595.8.814.814,0,0,0,.65.3h7.471a.833.833,0,0,0,.83-.83V8.924a.816.816,0,0,0-.235-.581ZM11.576,9.256l2.352-2.435V22.69H11.576ZM18.632,18.4a.833.833,0,0,0-.83.83V22.69H15.588V1.66H27.625V22.69H25.411V19.231a.833.833,0,0,0-.83-.83H18.632Zm13,4.289H29.285V6.821l2.352,2.435Z" transform="translate(-9.916 0)" fill="#944efc"/>
  </g>
</svg>
