<svg xmlns="http://www.w3.org/2000/svg" width="27.933" height="20.537" viewBox="0 0 27.933 20.537">
  <g transform="translate(-43.659 -158.232)">
    <g transform="translate(45.659 156.232)" fill="none">
      <path d="M11.967,2c9.748,0,13.967,10.268,13.967,10.268S21.705,22.537,11.967,22.537-2,12.268-2,12.268,2.218,2,11.967,2Z" stroke="none"/>
      <path d="M 11.96671676635742 3.499996185302734 C 8.399386405944824 3.499996185302734 5.217666625976562 5.034906387329102 2.509946823120117 8.062095642089844 C 1.023658752441406 9.723738670349121 0.08237838745117188 11.41322040557861 -0.3445568084716797 12.26768589019775 C 0.08369255065917969 13.12340641021729 1.026348114013672 14.81273651123047 2.513206481933594 16.47419738769531 C 5.222507476806641 19.50166702270508 8.40312671661377 21.03671646118164 11.96671676635742 21.03671646118164 C 15.53030681610107 21.03671646118164 18.7109260559082 19.50166702270508 21.42022705078125 16.47419738769531 C 22.9075984954834 14.81216239929199 23.85033226013184 13.12235832214355 24.27799224853516 12.26784515380859 C 23.85046577453613 11.41217231750488 22.90926170349121 9.723165512084961 21.42348670959473 8.062095642089844 C 18.71576690673828 5.034906387329102 15.53404712677002 3.499996185302734 11.96671676635742 3.499996185302734 M 11.96671676635742 1.999996185302734 C 21.7149772644043 1.999996185302734 25.93343734741211 12.26835632324219 25.93343734741211 12.26835632324219 C 25.93343734741211 12.26835632324219 21.70537757873535 22.53671646118164 11.96671676635742 22.53671646118164 C 2.228055953979492 22.53671646118164 -2.000003814697266 12.26835632324219 -2.000003814697266 12.26835632324219 C -2.000003814697266 12.26835632324219 2.218456268310547 1.999996185302734 11.96671676635742 1.999996185302734 Z" stroke="none" fill="#fff"/>
    </g>
    <path d="M0,4.778,2.867,1.052l3.27,2.569L8.943,0" transform="translate(53.347 166.384)" fill="none" stroke="#fff" stroke-linecap="round" stroke-linejoin="round" stroke-miterlimit="10" stroke-width="1.5"/>
  </g>
</svg>
