<svg xmlns="http://www.w3.org/2000/svg" width="20.555" height="25.121" viewBox="0 0 20.555 25.121">
  <path id="Path_9" data-name="Path 9" d="M22.1,13.887a11.579,11.579,0,0,0-1.04-1.108c-.9-.81-1.932-1.391-2.8-2.242a6.656,6.656,0,0,1-1.8-5.812.974.974,0,0,0-1.422-1.052,11.54,11.54,0,0,0-1.312.921A10.664,10.664,0,0,0,10.5,16.615a1.139,1.139,0,0,1,.108.446.749.749,0,0,1-.473.675.837.837,0,0,1-.891-.162.783.783,0,0,1-.189-.23A6.6,6.6,0,0,1,7.71,12.793a.627.627,0,0,0-1.139-.407A9.938,9.938,0,0,0,5,18.3,9.757,9.757,0,0,0,5.4,20.33a9.062,9.062,0,0,0,.959,2.337,9.451,9.451,0,0,0,6.7,4.349,10.211,10.211,0,0,0,8.2-2.161A8,8,0,0,0,23.32,15.94l-.176-.351a15.145,15.145,0,0,0-1.04-1.7" transform="translate(-4.235 -2.765)" fill="none" stroke="#b7bad1" stroke-miterlimit="10" stroke-width="1.5"/>
</svg>
