<svg xmlns="http://www.w3.org/2000/svg" width="20.17" height="14.822" viewBox="0 0 20.17 14.822">
  <path d="M240.866,32.369a4.5,4.5,0,0,1-2.661,4.074c-.157.082-.32.153-.483.223-.607.259-.609.259-1.08-.215a2.387,2.387,0,0,1-.77-2.038c.024-.2.086-.327.339-.349a7.156,7.156,0,0,0,2.374-.586,2.374,2.374,0,0,0,1.372-1.409,1.5,1.5,0,0,1,.209-.449.471.471,0,0,1,.341-.186.422.422,0,0,1,.284.262A3.9,3.9,0,0,1,240.866,32.369Z" transform="translate(-220.696 -31.432)" />
  <path d="M194.245,34.869a2.617,2.617,0,0,1-1.191,1.934.26.26,0,0,1-.209.037,4.831,4.831,0,0,1-3.475-3.433,6.457,6.457,0,0,1-.076-1.616.5.5,0,0,1,.309-.351.444.444,0,0,1,.36.241c.461,1.554,1.724,2,3.108,2.276.184.037.372.06.559.08C194.2,34.1,194.245,34.142,194.245,34.869Z" transform="translate(-189.28 -31.435)" />
  <path d="M211.606,37.77a3.479,3.479,0,0,1-1.109-2,10.7,10.7,0,0,1-.01-1.365,21.323,21.323,0,0,1-4.272-2.149,19.9,19.9,0,0,1-4.091,2.185.7.7,0,0,0-.019.151,3.4,3.4,0,0,1-1.162,3.254c-.462.444-.889.923-1.329,1.383.588.767,1.318.784,2.391.069.044.075.094.146.13.224.458.984.91,1.971,1.376,2.951a.355.355,0,0,1-.048.439,1.525,1.525,0,0,0-.226.414,2.155,2.155,0,0,0,.954,2.561l1,.605a2.2,2.2,0,0,0,2.243.017l.988-.575a2.162,2.162,0,0,0,1.068-2.222,1.85,1.85,0,0,0-.333-.805.362.362,0,0,1-.042-.442c.469-.991.928-1.987,1.393-2.98a1.528,1.528,0,0,1,.12-.183c1.037.716,1.842.691,2.377-.083C212.545,38.74,212.084,38.247,211.606,37.77Zm-8.56,1.3c-.112-.373-.043-.477.344-.508.066-.006.132,0,.2,0,.815,0,1.251.477,1.143,1.225-.026.183-.094.27-.291.275A1.492,1.492,0,0,1,203.047,39.074Zm1.659,5.41a.465.465,0,0,1-.441-.483.442.442,0,0,1,.479-.436.422.422,0,0,1,.42.458A.452.452,0,0,1,204.706,44.483Zm3.206,0a.465.465,0,0,1-.45-.443.456.456,0,0,1,.439-.482.449.449,0,0,1,.462.456A.455.455,0,0,1,207.912,44.483Zm.222-4.436a.339.339,0,0,1-.221-.218.977.977,0,0,1,.887-1.252,7.091,7.091,0,0,1,.794,0A1.368,1.368,0,0,1,208.134,40.047Z" transform="translate(-196.251 -31.99)" />
</svg>
