<svg xmlns="http://www.w3.org/2000/svg" width="40.099" height="37.822" viewBox="0 0 40.099 37.822">
  <g id="Group_302" data-name="Group 302" transform="translate(-22.184 -18.097)">
    <g id="Path_199" data-name="Path 199" transform="translate(37.163 35.097)" fill="none">
      <path d="M12.56-17S25.119-1.672,25.119,5.265A12.56,12.56,0,1,1,0,5.265C0-1.672,12.56-17,12.56-17Z" stroke="none"/>
      <path d="M 12.55960750579834 -13.76848983764648 C 11.36760807037354 -12.2193078994751 9.638681411743164 -9.897469520568848 7.925437927246094 -7.331647872924805 C 2.769807815551758 0.3896221220493317 1.999998092651367 3.874772071838379 1.999998092651367 5.265012264251709 C 1.999998092651367 11.08768177032471 6.737016677856445 15.82476234436035 12.55960750579834 15.82476234436035 C 18.38219833374023 15.82476234436035 23.11921691894531 11.08768177032471 23.11921691894531 5.265012264251709 C 23.11921691894531 3.874772071838379 22.34940719604492 0.3896221220493317 17.19377708435059 -7.331647872924805 C 15.48053359985352 -9.897469520568848 13.75160694122314 -12.2193078994751 12.55960750579834 -13.76848983764648 M 12.55960750579834 -16.99999809265137 C 12.55960750579834 -16.99999809265137 25.11921691894531 -1.671547889709473 25.11921691894531 5.265012264251709 C 25.11921691894531 12.20157241821289 19.4960880279541 17.82476234436035 12.55960750579834 17.82476234436035 C 5.623126983642578 17.82476234436035 -1.9073486328125e-06 12.20157241821289 -1.9073486328125e-06 5.265012264251709 C -1.9073486328125e-06 -1.671547889709473 12.55960750579834 -16.99999809265137 12.55960750579834 -16.99999809265137 Z" stroke="none" fill="#fff"/>
    </g>
    <path id="Path_201" data-name="Path 201" d="M9057.33,126.239h-21.68v32.435h19.259v-5.068" transform="translate(-9010.34 -103.755)" fill="none" stroke="#fff" stroke-width="2"/>
    <path id="Path_202" data-name="Path 202" d="M9027.514,138.988h15.979" transform="translate(-9004.329 -106.203)" fill="none" stroke="#fff" stroke-linecap="round" stroke-width="2"/>
    <path id="Path_203" data-name="Path 203" d="M9024.184,154.724h15.979" transform="translate(-9001 -110.331)" fill="none" stroke="#fff" stroke-linecap="round" stroke-width="2"/>
  </g>
</svg>
