<svg id="Iconly_Light_Message" data-name="Iconly/Light/Message" xmlns="http://www.w3.org/2000/svg" width="28" height="28" viewBox="0 0 28 28">
  <g id="Message" transform="translate(2.333 4.083)">
    <path id="Path_445" d="M13.2,0,8.223,4.007a2.594,2.594,0,0,1-3.2,0L0,0" transform="translate(4.613 6.488)" fill="none" stroke="#200e32" stroke-linecap="round" stroke-linejoin="round" stroke-miterlimit="10" stroke-width="1.5"/>
    <path id="Rectangle_511" d="M5.7,0h11a5.783,5.783,0,0,1,4.177,1.855,5.853,5.853,0,0,1,1.547,4.321v7.616a5.853,5.853,0,0,1-1.547,4.321A5.783,5.783,0,0,1,16.7,19.969H5.7C2.3,19.969,0,17.2,0,13.792V6.176C0,2.771,2.3,0,5.7,0Z" transform="translate(0 0)" fill="none" stroke="#200e32" stroke-linecap="round" stroke-linejoin="round" stroke-miterlimit="10" stroke-width="1.5"/>
  </g>
</svg>
