<svg width="24" height="24" viewBox="0 0 24 24" fill="none" xmlns="http://www.w3.org/2000/svg">
<path d="M21.1211 8.9499H2.27063L4.00401 5.0498C4.22068 4.61645 4.54569 4.39978 4.97903 4.39978H18.4127C18.8461 4.39978 19.2794 4.61645 19.3877 5.0498L21.1211 8.9499Z" stroke-width="1.2" stroke-miterlimit="10" stroke-linecap="round" stroke-linejoin="round"/>
<path d="M2.27063 8.95007V9.70843C2.27063 11.0085 3.35399 12.0918 4.65402 12.0918C5.95406 11.9835 7.03742 10.9001 7.03742 9.60009V8.95007" stroke-width="1.2" stroke-miterlimit="10" stroke-linecap="round" stroke-linejoin="round"/>
<path d="M7.03735 8.95007V9.70843C7.03735 11.0085 8.12071 12.0918 9.42075 12.0918C10.7208 12.0918 11.8041 11.0085 11.8041 9.70843V8.95007" stroke-width="1.2" stroke-miterlimit="10" stroke-linecap="round" stroke-linejoin="round"/>
<path d="M7.03735 8.95007V9.70843C7.03735 11.0085 8.12071 12.0918 9.42075 12.0918C10.7208 12.0918 11.8041 11.0085 11.8041 9.70843V8.95007" stroke-width="1.2" stroke-miterlimit="10" stroke-linecap="round" stroke-linejoin="round"/>
<path d="M11.6962 8.95007V9.70843C11.6962 11.0085 12.7795 12.0918 14.0796 12.0918C15.3796 12.0918 16.463 11.0085 16.463 9.70843V8.95007" stroke-width="1.2" stroke-miterlimit="10" stroke-linecap="round" stroke-linejoin="round"/>
<path d="M11.6962 8.95007V9.70843C11.6962 11.0085 12.7795 12.0918 14.0796 12.0918C15.3796 12.0918 16.463 11.0085 16.463 9.70843V8.95007" stroke-width="1.2" stroke-miterlimit="10" stroke-linecap="round" stroke-linejoin="round"/>
<path d="M16.4629 8.95007V9.70843C16.4629 11.0085 17.5463 12.0918 18.8463 12.0918C20.1463 12.0918 21.2297 11.0085 21.2297 9.70843V8.95007" stroke-width="1.2" stroke-miterlimit="10" stroke-linecap="round" stroke-linejoin="round"/>
<path d="M3.57092 11.7665V18.9167C3.57092 19.5667 4.00427 20 4.65428 20H18.8463C19.4963 20 19.9297 19.5667 19.9297 18.9167V11.7665" stroke-width="1.2" stroke-miterlimit="10" stroke-linecap="round" stroke-linejoin="round"/>
<path d="M9.42151 15.6663L11.0466 17.2913L14.08 14.2579" stroke-width="1.2" stroke-miterlimit="10" stroke-linecap="round" stroke-linejoin="round"/>
</svg>
