<svg width="24" height="24" viewBox="0 0 24 24" fill="none" xmlns="http://www.w3.org/2000/svg">
<path d="M11.9 20.8C16.8153 20.8 20.8 16.8153 20.8 11.9C20.8 6.98467 16.8153 3 11.9 3C6.98467 3 3 6.98467 3 11.9C3 16.8153 6.98467 20.8 11.9 20.8Z" stroke-width="1.3" stroke-miterlimit="10" stroke-linecap="round" stroke-linejoin="round"/>
<path d="M11.8998 17.2C12.5073 17.2 12.9998 16.7075 12.9998 16.1C12.9998 15.4925 12.5073 15 11.8998 15C11.2923 15 10.7998 15.4925 10.7998 16.1C10.7998 16.7075 11.2923 17.2 11.8998 17.2Z"/>
<path d="M9.69971 8.50059C9.99971 7.70059 10.7997 7.10059 11.7997 7.10059C12.9997 7.10059 14.0997 8.10059 14.0997 9.40059C14.0997 11.5006 11.7997 11.8006 11.7997 12.6006V13.2006" stroke-width="1.3" stroke-miterlimit="10" stroke-linecap="round" stroke-linejoin="round"/>
</svg>
