<svg width="18" height="20" viewBox="0 0 18 20" fill="none" xmlns="http://www.w3.org/2000/svg">
<path d="M1 15.3317C0.585786 15.3317 0.25 15.6674 0.25 16.0817C0.25 16.4959 0.585786 16.8317 1 16.8317V15.3317ZM17 16.8317C17.4142 16.8317 17.75 16.4959 17.75 16.0817C17.75 15.6674 17.4142 15.3317 17 15.3317V16.8317ZM2.63265 16.0817H1.88265V16.8317H2.63265V16.0817ZM7.24811 2.17037L6.68928 1.67016L6.68928 1.67016L7.24811 2.17037ZM7.91317 1.42738L7.35434 0.927167V0.927167L7.91317 1.42738ZM9.7603 1.42738L9.20148 1.92759V1.92759L9.7603 1.42738ZM10.4222 2.16686L10.981 1.66665V1.66665L10.4222 2.16686ZM15.3673 16.0817V16.8317H16.1173V16.0817H15.3673ZM6.12755 16.4465V16.8112H7.62755V16.4465H6.12755ZM11.5459 16.8112V16.4465H10.0459V16.8112H11.5459ZM8.83673 19.75C10.409 19.75 11.5459 18.354 11.5459 16.8112H10.0459C10.0459 17.6862 9.42856 18.25 8.83673 18.25V19.75ZM6.12755 16.8112C6.12755 18.354 7.2645 19.75 8.83673 19.75V18.25C8.24491 18.25 7.62755 17.6862 7.62755 16.8112H6.12755ZM1 16.8317H17V15.3317H1V16.8317ZM3.38265 16.0817V7.25709H1.88265V16.0817H3.38265ZM7.80693 2.67059L8.47199 1.92759L7.35434 0.927167L6.68928 1.67016L7.80693 2.67059ZM9.20148 1.92759L9.86339 2.66707L10.981 1.66665L10.3191 0.927168L9.20148 1.92759ZM14.6173 7.61692V16.0817H16.1173V7.61692H14.6173ZM15.3673 15.3317H2.63265V16.8317H15.3673V15.3317ZM10.5361 2.96955C12.7141 2.96955 14.6173 4.96994 14.6173 7.61692H16.1173C16.1173 4.30213 13.6945 1.46955 10.5361 1.46955V2.96955ZM9.86339 2.66707C10.0262 2.84894 10.266 2.96955 10.5361 2.96955V1.46955C10.7208 1.46955 10.8787 1.55225 10.981 1.66665L9.86339 2.66707ZM8.47199 1.92759C8.68395 1.6908 8.98952 1.6908 9.20148 1.92759L10.3191 0.927168C9.51094 0.0242783 8.16253 0.0242765 7.35434 0.927167L8.47199 1.92759ZM7.14182 2.96955C7.40911 2.96955 7.64615 2.85021 7.80693 2.67058L6.68928 1.67016C6.79369 1.55352 6.95427 1.46955 7.14182 1.46955V2.96955ZM3.38265 7.25709C3.38265 4.80884 5.14168 2.96955 7.14182 2.96955V1.46955C4.16127 1.46955 1.88265 4.14104 1.88265 7.25709H3.38265Z" />
</svg>
