<svg width="20" height="20" viewBox="0 0 20 20" fill="none" xmlns="http://www.w3.org/2000/svg">
<path d="M8.38213 6.79576C10.0322 6.79576 11.3699 5.45811 11.3699 3.80804C11.3699 2.15796 10.0322 0.820312 8.38213 0.820312C6.73206 0.820312 5.39441 2.15796 5.39441 3.80804C5.39441 5.45811 6.73206 6.79576 8.38213 6.79576Z" stroke-width="1.3" stroke-miterlimit="10" stroke-linecap="round" stroke-linejoin="round"/>
<path d="M0.797852 17.3686C0.797852 13.1169 4.24522 9.78442 8.38207 9.78442C10.2207 9.78442 11.9444 10.4739 13.2084 11.5081" stroke-width="1.3" stroke-miterlimit="10" stroke-linecap="round" stroke-linejoin="round"/>
<path d="M14.4726 18.5177L12.2892 18.9773C11.9445 19.0922 11.5998 18.7475 11.7147 18.4028L12.1743 16.2194C12.1743 15.9896 12.2892 15.8747 12.4042 15.7598L16.541 11.6229C16.8857 11.2782 17.5752 11.2782 17.92 11.6229L19.0691 12.7721C19.4138 13.1168 19.4138 13.8063 19.0691 14.151L14.9322 18.2879C14.8173 18.4028 14.7024 18.4028 14.4726 18.5177Z" stroke-width="1.3" stroke-miterlimit="10" stroke-linecap="round" stroke-linejoin="round"/>
</svg>
