<svg width="25" height="24" viewBox="0 0 25 24" xmlns="http://www.w3.org/2000/svg" fill='none'>
<path fill-rule="evenodd" clip-rule="evenodd" d="M11.9995 4.75C10.7569 4.75 9.74951 5.75736 9.74951 7C9.74951 8.24264 10.7569 9.25 11.9995 9.25C13.2422 9.25 14.2495 8.24264 14.2495 7C14.2495 5.75736 13.2422 4.75 11.9995 4.75ZM8.24951 7C8.24951 4.92893 9.92844 3.25 11.9995 3.25C14.0706 3.25 15.7495 4.92893 15.7495 7C15.7495 9.07107 14.0706 10.75 11.9995 10.75C9.92844 10.75 8.24951 9.07107 8.24951 7Z" />
<path fill-rule="evenodd" clip-rule="evenodd" d="M3.24951 20.8298C3.24951 16.0913 7.09081 12.25 11.8293 12.25H12.1697C16.9082 12.25 20.7495 16.0913 20.7495 20.8298C20.7495 21.338 20.3375 21.75 19.8293 21.75H4.16972C3.6615 21.75 3.24951 21.338 3.24951 20.8298ZM4.77291 20.25H19.2261C18.9312 16.6111 15.8846 13.75 12.1697 13.75H11.8293C8.11445 13.75 5.06785 16.6111 4.77291 20.25Z" />
</svg>
