<svg width="24" height="24" viewBox="0 0 24 24" fill="none" xmlns="http://www.w3.org/2000/svg">
<path d="M12 15C14.2091 15 16 13.2091 16 11C16 8.79086 14.2091 7 12 7C9.79086 7 8 8.79086 8 11C8 13.2091 9.79086 15 12 15Z" stroke-width="1.2" stroke-miterlimit="10" stroke-linecap="round" stroke-linejoin="round"/>
<path d="M14 11C14 12.1111 13.1111 13 12 13C10.8889 13 10 12.1111 10 11" stroke-width="1.2" stroke-miterlimit="10" stroke-linecap="round" stroke-linejoin="round"/>
<path d="M18.8824 4H5.11765C3.95294 4 3 4.95031 3 6.1118V16.1429C3 17.3043 3.95294 18.2547 5.11765 18.2547H9.24706L12 21L14.7529 18.2547H18.8824C20.0471 18.2547 21 17.3043 21 16.1429V6.1118C21 4.95031 20.0471 4 18.8824 4Z" stroke-width="1.2" stroke-miterlimit="10" stroke-linecap="round" stroke-linejoin="round"/>
</svg>
