<svg width="19" height="17" viewBox="0 0 19 17" fill="none" xmlns="http://www.w3.org/2000/svg">
<path d="M3.01338 3.37006H4.85864C5.19492 3.37006 5.50869 3.20104 5.6937 2.92021L6.6624 1.44985C6.84741 1.16903 7.16117 1 7.49746 1H11.1463C11.4857 1 11.802 1.17218 11.9862 1.45727L12.8132 2.73711C12.9974 3.02221 13.3137 3.19439 13.6531 3.19439H16.0134C17.1189 3.19439 18.0148 4.09133 18.0134 5.19687L18.0025 14.0025C18.0011 15.1061 17.1061 16 16.0025 16H3.00252C1.89697 16 1.00113 15.103 1.00252 13.9975L1.01338 5.36755C1.01477 4.26396 1.90979 3.37006 3.01338 3.37006Z" stroke-width="1.3"/>
<circle cx="9.50781" cy="9.30859" r="3" stroke-width="1.3"/>
</svg>
