<svg width="21" height="18" viewBox="0 0 21 18" fill="none" xmlns="http://www.w3.org/2000/svg">
<path d="M6 1V3" stroke-width="1.3" stroke-miterlimit="10" stroke-linecap="round" stroke-linejoin="round"/>
<path d="M6 7L6 11" stroke-width="1.3" stroke-miterlimit="10" stroke-linecap="round" stroke-linejoin="round"/>
<path d="M6 15V17" stroke-width="1.3" stroke-miterlimit="10" stroke-linecap="round" stroke-linejoin="round"/>
<path d="M17.9146 9.06471C17.9146 7.66437 18.8415 6.49741 20 6.14732V2.64646C20 1.7129 19.3049 1.01272 18.378 1.01272H2.62195C1.69512 0.896029 1 1.5962 1 2.52977V6.03063C2.27439 6.49741 3.08537 7.54767 3.08537 8.94802C3.08537 10.3484 2.15854 11.5153 1 11.8654V15.3663C1 16.2998 1.69512 17 2.62195 17H18.378C19.3049 17 20 16.2998 20 15.3663V11.8654C18.7256 11.5153 17.9146 10.3484 17.9146 9.06471Z" stroke-width="1.3" stroke-miterlimit="10" stroke-linecap="round" stroke-linejoin="round"/>
</svg>
