<svg width="25" height="24" viewBox="0 0 25 24" xmlns="http://www.w3.org/2000/svg" fill='none'>
<path d="M4.94118 13.371V20.5C4.94118 20.7761 5.16503 21 5.44118 21H9.5C9.77614 21 10 20.7761 10 20.5V16.6935C10 16.4174 10.2239 16.1935 10.5 16.1935H13.5C13.7761 16.1935 14 16.4174 14 16.6935V20.5C14 20.7761 14.2239 21 14.5 21H18.5588C18.835 21 19.0588 20.7761 19.0588 20.5V13.371C19.0588 13.0948 19.2827 12.871 19.5588 12.871H20.7817C21.2287 12.871 21.4511 12.3292 21.133 12.0151L12.3513 3.34672C12.1565 3.15451 11.8435 3.15451 11.6487 3.34672L2.86703 12.0151C2.54889 12.3292 2.77126 12.871 3.21828 12.871H4.44118C4.71732 12.871 4.94118 13.0948 4.94118 13.371Z" stroke-width="1.5" />
</svg>
